<svg width="41" height="40" viewBox="0 0 41 40" fill="none" xmlns="http://www.w3.org/2000/svg">
<path d="M20.5832 21.0565C24.2083 21.0565 27.1471 18.1571 27.1471 14.5805C27.1471 11.0039 24.2083 8.10449 20.5832 8.10449C16.958 8.10449 14.0193 11.0039 14.0193 14.5805C14.0193 18.1571 16.958 21.0565 20.5832 21.0565Z" fill="#2F93A9"/>
<path d="M7.48071 34.0402C7.48071 34.0402 7.50158 25.0912 16.3398 22C16.3398 22 20.6225 24.3808 24.4523 22.0133C24.4523 22.0133 32.0159 23.7999 33.4807 34.0402C33.4807 34.0402 28.3987 39.95 20.4755 39.9495C20.4755 39.9495 14.4135 40.9503 7.48071 34.0402Z" fill="#2F93A9"/>
<circle cx="20.4807" cy="20" r="19" stroke="#2F93A9" stroke-width="2"/>
</svg>
