<svg width="21" height="28" viewBox="0 0 21 28" fill="none" xmlns="http://www.w3.org/2000/svg">
<mask id="path-1-inside-1_376_1473" fill="white">
<path d="M0.0742764 14.1299C0.0682855 13.0136 0.6887 11.8876 1.91377 11.0235L16.9843 0.392551C17.6547 -0.0802989 18.7683 -0.0974673 19.4435 0.354637C20.1188 0.806742 20.1229 1.57222 19.4526 2.04507L4.38205 12.676C3.27255 13.4586 3.27923 14.7025 4.39694 15.4509L19.5791 25.6154C20.2544 26.0675 20.2585 26.833 19.5882 27.3058C18.9179 27.7787 17.8043 27.7959 17.129 27.3438L1.94681 17.1792C0.712664 16.3529 0.0802673 15.2463 0.0742764 14.1299Z"/>
</mask>
<path d="M0.0742764 14.1299C0.0682855 13.0136 0.6887 11.8876 1.91377 11.0235L16.9843 0.392551C17.6547 -0.0802989 18.7683 -0.0974673 19.4435 0.354637C20.1188 0.806742 20.1229 1.57222 19.4526 2.04507L4.38205 12.676C3.27255 13.4586 3.27923 14.7025 4.39694 15.4509L19.5791 25.6154C20.2544 26.0675 20.2585 26.833 19.5882 27.3058C18.9179 27.7787 17.8043 27.7959 17.129 27.3438L1.94681 17.1792C0.712664 16.3529 0.0802673 15.2463 0.0742764 14.1299Z" fill="#2F93A9"/>
<path d="M1.91377 11.0235L7.62159 19.1772L7.62159 19.1772L1.91377 11.0235ZM16.9843 0.392551L11.2765 -7.76114L11.2765 -7.76113L16.9843 0.392551ZM19.4526 2.04507L13.7448 -6.10862L13.7448 -6.10861L19.4526 2.04507ZM4.38205 12.676L10.0899 20.8297L10.0899 20.8297L4.38205 12.676ZM4.39694 15.4509L10.0163 7.12255L10.0163 7.12253L4.39694 15.4509ZM19.5791 25.6154L13.9597 33.9437L13.9597 33.9437L19.5791 25.6154ZM17.129 27.3438L11.5096 35.6721L11.5096 35.6721L17.129 27.3438ZM1.94681 17.1792L7.56619 8.85089L7.56617 8.85088L1.94681 17.1792ZM10.0731 13.9758C10.0886 16.8721 8.45073 18.5923 7.62159 19.1772L-3.79405 2.86978C-7.07333 5.18301 -9.95206 9.15519 -9.92454 14.2841L10.0731 13.9758ZM7.62159 19.1772L22.6922 8.54623L11.2765 -7.76113L-3.79405 2.86978L7.62159 19.1772ZM22.6922 8.54624C21.0201 9.72572 19.3733 10.0095 18.2657 10.0266C17.1582 10.0437 15.5086 9.81069 13.8242 8.68296L25.0629 -7.97368C22.7032 -9.55352 20.1592 -10.004 18.1584 -9.97312C16.1576 -9.94227 13.6189 -9.41347 11.2765 -7.76114L22.6922 8.54624ZM13.8242 8.68296C12.0123 7.46991 9.97333 4.97094 9.95387 1.34623C9.93442 -2.27849 11.9463 -4.83991 13.7448 -6.10862L25.1604 10.1988C27.6293 8.4572 29.9742 5.27662 29.9515 1.03792C29.9288 -3.20077 27.5501 -6.30853 25.0629 -7.97368L13.8242 8.68296ZM13.7448 -6.10861L-1.32578 4.5223L10.0899 20.8297L25.1604 10.1988L13.7448 -6.10861ZM-1.32577 4.5223C-3.9607 6.381 -6.46861 9.74173 -6.44452 14.2304C-6.42043 18.7192 -3.87686 22.002 -1.22242 23.7792L10.0163 7.12253C11.553 8.15137 13.5344 10.4381 13.5531 13.9221C13.5718 17.4062 11.6153 19.7536 10.0899 20.8297L-1.32577 4.5223ZM-1.22245 23.7792L13.9597 33.9437L25.1985 17.2871L10.0163 7.12255L-1.22245 23.7792ZM13.9597 33.9437C12.1479 32.7307 10.1089 30.2317 10.0894 26.607C10.07 22.9823 12.0818 20.4209 13.8804 19.1522L25.296 35.4595C27.7649 33.718 30.1098 30.5374 30.0871 26.2987C30.0643 22.06 27.6856 18.9522 25.1985 17.2871L13.9597 33.9437ZM13.8804 19.1522C15.5524 17.9727 17.1992 17.6889 18.3068 17.6718C19.4144 17.6547 21.0639 17.8877 22.7483 19.0154L11.5096 35.6721C13.8693 37.2519 16.4133 37.7024 18.4141 37.6715C20.4149 37.6407 22.9536 37.1119 25.296 35.4595L13.8804 19.1522ZM22.7484 19.0155L7.56619 8.85089L-3.67258 25.5075L11.5096 35.6721L22.7484 19.0155ZM7.56617 8.85088C8.40145 9.4101 10.0575 11.0795 10.0731 13.9758L-9.92454 14.2841C-9.89701 19.413 -6.97612 23.2958 -3.67256 25.5075L7.56617 8.85088Z" fill="#2F93A9" mask="url(#path-1-inside-1_376_1473)"/>
</svg>
