<svg width="31" height="31" viewBox="0 0 31 31" fill="none" xmlns="http://www.w3.org/2000/svg">
<path d="M15.9415 0.349976C7.65546 0.349976 0.90332 7.08498 0.90332 15.35C0.90332 23.615 7.65546 30.35 15.9415 30.35C24.2275 30.35 30.9797 23.615 30.9797 15.35C30.9797 7.08498 24.2275 0.349976 15.9415 0.349976ZM20.9943 18.8C21.4304 19.235 21.4304 19.955 20.9943 20.39C20.7687 20.615 20.483 20.72 20.1973 20.72C19.9116 20.72 19.6258 20.615 19.4003 20.39L15.9415 16.94L12.4827 20.39C12.2571 20.615 11.9714 20.72 11.6857 20.72C11.4 20.72 11.1142 20.615 10.8887 20.39C10.4526 19.955 10.4526 19.235 10.8887 18.8L14.3474 15.35L10.8887 11.9C10.4526 11.465 10.4526 10.745 10.8887 10.31C11.3248 9.87498 12.0466 9.87498 12.4827 10.31L15.9415 13.76L19.4003 10.31C19.8364 9.87498 20.5582 9.87498 20.9943 10.31C21.4304 10.745 21.4304 11.465 20.9943 11.9L17.5355 15.35L20.9943 18.8Z" fill="#BB9B8E"/>
</svg>
