<svg width="41" height="40" viewBox="0 0 41 40" fill="none" xmlns="http://www.w3.org/2000/svg">
<circle cx="20.4807" cy="20" r="19" stroke="#BB9B8E" stroke-width="2"/>
<path d="M20.4417 30.1904C19.9859 30.1904 19.6523 30.1253 19.4407 29.9951C19.2454 29.8649 19.1477 29.6452 19.1477 29.3359V21.5723H11.3596C11.0504 21.5723 10.8225 21.4909 10.676 21.3281C10.5458 21.1654 10.4807 20.8643 10.4807 20.4248V20.1318C10.4807 19.6598 10.554 19.3018 10.7004 19.0576C10.8469 18.7972 11.0667 18.667 11.3596 18.667H19.1477V10.8789C19.1477 10.5859 19.2454 10.3662 19.4407 10.2197C19.6523 10.0732 19.9859 10 20.4417 10H20.7346C21.5972 10 22.0286 10.293 22.0286 10.8789V18.667H29.7678C30.0608 18.667 30.2805 18.7728 30.427 18.9844C30.5735 19.1797 30.6467 19.5052 30.6467 19.9609V20.2539C30.6467 21.1328 30.3538 21.5723 29.7678 21.5723H22.0286V29.3359C22.0286 29.6452 21.9228 29.8649 21.7112 29.9951C21.5159 30.1253 21.1903 30.1904 20.7346 30.1904H20.4417Z" fill="#BB9B8E"/>
</svg>
