<svg width="40" height="40" viewBox="0 0 40 40" fill="none" xmlns="http://www.w3.org/2000/svg">
<circle cx="20" cy="20" r="19" stroke="#F97C22" stroke-width="2"/>
<path d="M19.9609 30.1904C19.5052 30.1904 19.1715 30.1253 18.96 29.9951C18.7646 29.8649 18.667 29.6452 18.667 29.3359V21.5723H10.8789C10.5697 21.5723 10.3418 21.4909 10.1953 21.3281C10.0651 21.1654 10 20.8643 10 20.4248V20.1318C10 19.6598 10.0732 19.3018 10.2197 19.0576C10.3662 18.7972 10.5859 18.667 10.8789 18.667H18.667V10.8789C18.667 10.5859 18.7646 10.3662 18.96 10.2197C19.1715 10.0732 19.5052 10 19.9609 10H20.2539C21.1165 10 21.5479 10.293 21.5479 10.8789V18.667H29.2871C29.5801 18.667 29.7998 18.7728 29.9463 18.9844C30.0928 19.1797 30.166 19.5052 30.166 19.9609V20.2539C30.166 21.1328 29.873 21.5723 29.2871 21.5723H21.5479V29.3359C21.5479 29.6452 21.4421 29.8649 21.2305 29.9951C21.0352 30.1253 20.7096 30.1904 20.2539 30.1904H19.9609Z" fill="#F97C22"/>
</svg>
