<svg width="30" height="31" viewBox="0 0 30 31" fill="none" xmlns="http://www.w3.org/2000/svg">
<path d="M15 0.349976C6.735 0.349976 0 7.08498 0 15.35C0 23.615 6.735 30.35 15 30.35C23.265 30.35 30 23.615 30 15.35C30 7.08498 23.265 0.349976 15 0.349976ZM20.04 18.8C20.475 19.235 20.475 19.955 20.04 20.39C19.815 20.615 19.53 20.72 19.245 20.72C18.96 20.72 18.675 20.615 18.45 20.39L15 16.94L11.55 20.39C11.325 20.615 11.04 20.72 10.755 20.72C10.47 20.72 10.185 20.615 9.96 20.39C9.525 19.955 9.525 19.235 9.96 18.8L13.41 15.35L9.96 11.9C9.525 11.465 9.525 10.745 9.96 10.31C10.395 9.87498 11.115 9.87498 11.55 10.31L15 13.76L18.45 10.31C18.885 9.87498 19.605 9.87498 20.04 10.31C20.475 10.745 20.475 11.465 20.04 11.9L16.59 15.35L20.04 18.8Z" fill="#2F93A9"/>
</svg>
