<svg width="40" height="40" viewBox="0 0 40 40" fill="none" xmlns="http://www.w3.org/2000/svg">
<path d="M38.4745 10.1953C38.4335 10.1953 38.3719 10.1953 38.3104 10.1953C27.4575 9.20924 16.6252 8.83715 5.89537 9.8232L1.71015 10.1953C0.848487 10.2697 0.089403 9.71157 0.00733989 8.93018C-0.0747232 8.14879 0.54075 7.47902 1.3819 7.4046L5.56712 7.03251C16.4816 6.02786 27.5396 6.41856 38.6181 7.4046C39.4593 7.47902 40.0747 8.16739 39.9927 8.93018C39.9311 9.65576 39.2541 10.1953 38.4745 10.1953Z" fill="#BB9B8E"/>
<path d="M12.8318 8.31624C12.7498 8.31624 12.6677 8.31624 12.5651 8.29764C11.7445 8.1674 11.1701 7.44183 11.3137 6.69764L11.765 4.26045C12.0933 2.47441 12.5446 0 17.3247 0H22.6998C27.5005 0 27.9519 2.56743 28.2596 4.27905L28.711 6.69764C28.8546 7.46043 28.2801 8.18601 27.4595 8.29764C26.6184 8.42787 25.8182 7.90694 25.6951 7.16276L25.2438 4.74416C24.9566 3.12557 24.895 2.80929 22.7204 2.80929H17.3452C15.1706 2.80929 15.1296 3.06975 14.8219 4.72556L14.35 7.14415C14.2269 7.83252 13.5704 8.31624 12.8318 8.31624Z" fill="#BB9B8E"/>
<path d="M26.5976 40H13.4264C6.2664 40 5.97918 36.4093 5.75351 33.507L4.41998 14.7722C4.35844 14.0094 5.01494 13.3396 5.85609 13.2838C6.71775 13.2466 7.43581 13.8233 7.49735 14.5861L8.83088 33.321C9.05655 36.1489 9.13861 37.2093 13.4264 37.2093H26.5976C30.9059 37.2093 30.9879 36.1489 31.1931 33.321L32.5266 14.5861C32.5882 13.8233 33.3267 13.2466 34.1679 13.2838C35.009 13.3396 35.6655 13.9908 35.604 14.7722L34.2705 33.507C34.0448 36.4093 33.7576 40 26.5976 40Z" fill="#BB9B8E"/>
<path d="M23.4167 29.7673H16.585C15.7438 29.7673 15.0463 29.1348 15.0463 28.372C15.0463 27.6092 15.7438 26.9766 16.585 26.9766H23.4167C24.2579 26.9766 24.9554 27.6092 24.9554 28.372C24.9554 29.1348 24.2579 29.7673 23.4167 29.7673Z" fill="#BB9B8E"/>
<path d="M25.1401 22.3255H14.8822C14.041 22.3255 13.3435 21.6929 13.3435 20.9301C13.3435 20.1673 14.041 19.5348 14.8822 19.5348H25.1401C25.9812 19.5348 26.6788 20.1673 26.6788 20.9301C26.6788 21.6929 25.9812 22.3255 25.1401 22.3255Z" fill="#BB9B8E"/>
</svg>
