<svg width="18" height="15" viewBox="0 0 18 15" fill="none" xmlns="http://www.w3.org/2000/svg">
<path d="M3.59375 4.22168V0.846677C3.59375 0.6229 3.70734 0.408289 3.90953 0.250055C4.11171 0.0918216 4.38594 0.00292676 4.67188 0.00292676C4.95781 0.00292676 5.23204 0.0918216 5.43422 0.250055C5.63641 0.408289 5.75 0.6229 5.75 0.846677V4.22168C5.75 4.44545 5.63641 4.66006 5.43422 4.8183C5.23204 4.97653 4.95781 5.06543 4.67188 5.06543C4.38594 5.06543 4.11171 4.97653 3.90953 4.8183C3.70734 4.66006 3.59375 4.44545 3.59375 4.22168ZM17.25 0.846677V13.7842C17.25 14.008 17.1364 14.2226 16.9342 14.3808C16.732 14.539 16.4578 14.6279 16.1719 14.6279C15.8859 14.6279 15.6117 14.539 15.4095 14.3808C15.2073 14.2226 15.0938 14.008 15.0938 13.7842V10.6904H11.1406C10.8547 10.6904 10.5805 10.6015 10.3783 10.4433C10.1761 10.2851 10.0625 10.0705 10.0625 9.84668C10.0962 8.47702 10.317 7.11411 10.7211 5.78121C11.6276 2.84496 13.3652 0.86988 15.7469 0.0732393C15.9107 0.018262 16.0894 -0.00408084 16.2669 0.00820964C16.4444 0.0205001 16.6153 0.0670406 16.7642 0.143667C16.9131 0.220293 17.0354 0.324615 17.1202 0.447299C17.205 0.569983 17.2496 0.707201 17.25 0.846677ZM15.0938 2.45824C13.8898 3.44824 13.207 4.9248 12.827 6.14683C12.5426 7.08551 12.3557 8.04066 12.2682 9.00293H15.0938V2.45824ZM8.98438 0.776364C8.96055 0.552588 8.82411 0.345385 8.60507 0.200337C8.38603 0.0552893 8.10234 -0.0157213 7.81641 0.00292676C7.53047 0.0215748 7.26571 0.128354 7.08037 0.299774C6.89503 0.471194 6.8043 0.693213 6.82812 0.916989L7.1875 4.25402C7.1875 4.77617 6.92246 5.27692 6.45069 5.64614C5.97892 6.01535 5.33906 6.22277 4.67188 6.22277C4.00469 6.22277 3.36483 6.01535 2.89306 5.64614C2.42129 5.27692 2.15625 4.77617 2.15625 4.25402L2.51562 0.916989C2.52742 0.806186 2.51122 0.69465 2.46794 0.588748C2.42466 0.482846 2.35515 0.384652 2.26338 0.299774C2.17161 0.214895 2.05937 0.144994 1.93309 0.0940608C1.8068 0.0431277 1.66893 0.0121603 1.52734 0.00292676C1.38576 -0.00630681 1.24324 0.00637424 1.10792 0.0402459C0.972605 0.0741176 0.847135 0.128517 0.73868 0.200337C0.630224 0.272157 0.540905 0.359993 0.475824 0.458827C0.410743 0.557662 0.371173 0.665561 0.359375 0.776364L0 4.15136C0 4.17527 0 4.19847 0 4.22168C0.00172399 5.04426 0.357159 5.84246 1.00906 6.48772C1.66097 7.13298 2.5714 7.58774 3.59375 7.77879V13.7842C3.59375 14.008 3.70734 14.2226 3.90953 14.3808C4.11171 14.539 4.38594 14.6279 4.67188 14.6279C4.95781 14.6279 5.23204 14.539 5.43422 14.3808C5.63641 14.2226 5.75 14.008 5.75 13.7842V7.77879C6.77235 7.58774 7.68278 7.13298 8.33469 6.48772C8.98659 5.84246 9.34203 5.04426 9.34375 4.22168C9.34375 4.19847 9.34375 4.17527 9.34375 4.15136L8.98438 0.776364Z" fill="black"/>
</svg>
