<svg width="40" height="40" viewBox="0 0 40 40" fill="none" xmlns="http://www.w3.org/2000/svg">
<path d="M39 20C39 30.4934 30.4934 39 20 39C9.50659 39 1 30.4934 1 20C1 9.50659 9.50659 1 20 1C30.4934 1 39 9.50659 39 20Z" stroke="#BB9B8E" stroke-width="2"/>
<path d="M9.01517 30.9944C9.01084 30.9123 9.00499 30.8521 9.00499 30.7917C9.00412 29.0312 9.00564 27.2708 9 25.5103C8.99957 25.3548 9.04615 25.247 9.156 25.1374C12.4119 21.8883 15.665 18.6362 18.9182 15.3842C19.9791 14.3237 21.0399 13.2626 22.0991 12.2003C22.1645 12.1347 22.2172 12.0565 22.2629 12C24.1838 13.924 26.0776 15.8204 28 17.7456C27.7056 18.0309 27.3775 18.3408 27.0584 18.6595C23.0056 22.7078 18.9535 26.7569 14.905 30.8094C14.7726 30.942 14.6435 31.0006 14.4533 31C12.7107 30.9922 10.9681 30.9948 9.22533 30.9944C9.15925 30.9944 9.09295 30.9944 9.01517 30.9944ZM13.1934 23.8185C13.1856 23.8239 13.1635 23.8352 13.1468 23.8519C12.4277 24.5696 11.7078 25.2864 10.9933 26.0086C10.9443 26.058 10.9168 26.1481 10.9142 26.2204C10.9044 26.4864 10.8986 26.7536 10.9146 27.0191C10.9207 27.1179 10.9679 27.235 11.0357 27.3059C11.4001 27.6859 11.7765 28.0545 12.1498 28.4261C12.3692 28.6446 12.5556 28.9465 12.8205 29.055C13.092 29.1663 13.4417 29.097 13.7563 29.0862C13.8544 29.0828 13.9742 29.0366 14.0434 28.9686C14.7104 28.3127 15.3689 27.648 16.0292 26.9856C16.0888 26.9258 16.1462 26.8636 16.1911 26.8166C15.1841 25.8096 14.192 24.8173 13.1934 23.8185ZM15.41 22.5984C15.4991 22.533 15.6388 22.4548 15.7482 22.3459C17.3292 20.7728 18.906 19.1953 20.4837 17.619C21.185 16.9184 21.8874 16.2191 22.5866 15.5163C22.8425 15.2591 22.8503 15.0449 22.6249 14.8262C22.4113 14.6187 22.2224 14.6345 21.9657 14.8816C21.9299 14.916 21.8946 14.9507 21.8595 14.9858C19.8389 17.0041 17.8184 19.0223 15.7981 21.0411C15.5307 21.3081 15.2629 21.5749 15.0021 21.8482C14.8888 21.9669 14.8339 22.1131 14.9163 22.2738C15.0057 22.4477 15.1416 22.5661 15.41 22.5984Z" fill="#BB9B8E"/>
<path d="M29.6031 16C27.7691 14.1551 25.8913 12.2661 24.0004 10.364C23.998 10.3681 24.0077 10.3378 24.0275 10.3179C24.6377 9.70647 25.2382 9.08488 25.8627 8.48859C26.483 7.89597 27.485 7.83846 28.1803 8.33789C28.3589 8.46632 28.5156 8.62826 28.6721 8.785C29.6011 9.71469 30.5314 10.6429 31.4525 11.5805C32.0425 12.1812 32.1648 13.0771 31.7749 13.8068C31.7259 13.8989 31.6751 13.9969 31.6019 14.0682C30.9352 14.7185 30.2637 15.3631 29.6031 16Z" fill="#BB9B8E"/>
</svg>
