<svg width="34" height="34" viewBox="0 0 34 34" fill="none" xmlns="http://www.w3.org/2000/svg">
<path d="M17 20.1875C18.7604 20.1875 20.1875 18.7604 20.1875 17C20.1875 15.2396 18.7604 13.8125 17 13.8125C15.2396 13.8125 13.8125 15.2396 13.8125 17C13.8125 18.7604 15.2396 20.1875 17 20.1875Z" fill="#BB9B8E"/>
<path d="M17 30.8125C18.7604 30.8125 20.1875 29.3854 20.1875 27.625C20.1875 25.8646 18.7604 24.4375 17 24.4375C15.2396 24.4375 13.8125 25.8646 13.8125 27.625C13.8125 29.3854 15.2396 30.8125 17 30.8125Z" fill="#BB9B8E"/>
<path d="M17 9.5625C18.7604 9.5625 20.1875 8.13541 20.1875 6.375C20.1875 4.61459 18.7604 3.1875 17 3.1875C15.2396 3.1875 13.8125 4.61459 13.8125 6.375C13.8125 8.13541 15.2396 9.5625 17 9.5625Z" fill="#BB9B8E"/>
</svg>
