<svg width="40" height="40" viewBox="0 0 40 40" fill="none" xmlns="http://www.w3.org/2000/svg">
<path d="M9.56745 29.6215C9.56745 27.6626 9.55556 25.7036 9.57796 23.745C9.58229 23.3714 9.4661 23.3056 9.14149 23.3164C8.44653 23.3392 7.75018 23.312 7.05507 23.3295C6.80802 23.3358 6.65012 23.24 6.50133 23.0569C5.77316 22.1612 5.84052 20.912 6.68844 20.0392C8.3237 18.356 9.96669 16.6806 11.6064 15.0017C13.9532 12.5989 16.2993 10.1954 18.6469 7.79335C19.6766 6.73962 20.9102 6.73424 21.9373 7.78512C25.915 11.8548 29.8913 15.9257 33.8659 19.9986C34.7498 20.9044 34.8263 22.1919 34.0689 23.0821C33.9254 23.2507 33.7752 23.3335 33.5478 23.3287C32.838 23.3139 32.127 23.3415 31.418 23.3146C31.0886 23.3021 31.0138 23.4007 31.015 23.7336C31.0278 27.5623 31.0237 31.391 31.0232 35.2197C31.023 36.8332 30.1869 37.6892 28.6111 37.6897C26.7561 37.6903 24.9012 37.6795 23.0463 37.6985C22.6693 37.7023 22.5369 37.6336 22.5408 37.2038C22.5641 34.6069 22.553 32.0098 22.5521 29.4128C22.5518 28.3838 22.068 27.8898 21.0613 27.887C20.5831 27.8857 20.1049 27.8867 19.6266 27.8868C18.4939 27.8873 18.0397 28.3464 18.0397 29.4924C18.0393 32.0894 18.0327 34.6865 18.0478 37.2834C18.0498 37.6188 17.9695 37.7012 17.6429 37.6982C15.7011 37.681 13.7591 37.6928 11.8173 37.6884C10.4568 37.6852 9.57008 36.7668 9.56823 35.3643C9.5656 33.4502 9.56745 31.5358 9.56745 29.6215Z" fill="#2F93A9"/>
<circle cx="20" cy="20" r="19" stroke="#2F93A9" stroke-width="2"/>
</svg>
