<svg width="52" height="59" viewBox="0 0 52 59" fill="none" xmlns="http://www.w3.org/2000/svg">
<path d="M0.0964345 47.4888C0.553092 46.4735 1.37051 45.9431 2.53499 45.9065H7.3436L7.53539 45.9294C7.63129 45.9797 7.71805 46.0711 7.79112 46.2083L7.54909 48.1336C7.53996 48.1519 7.53082 48.1656 7.51712 48.1839C7.50342 48.2022 7.49429 48.2204 7.48516 48.2433C7.29793 48.3714 7.09243 48.4399 6.85497 48.4491L6.48051 51.1701C6.44854 51.2249 6.41201 51.2798 6.36635 51.3255C6.32068 51.3758 6.27502 51.4261 6.22935 51.481C6.01015 51.545 5.78182 51.545 5.5398 51.481C5.46673 51.4078 5.42106 51.3301 5.39367 51.2524C5.4028 51.074 5.37997 50.8637 5.3343 50.6213L5.3206 50.571C5.06944 50.5161 4.76804 50.4887 4.41642 50.4978H3.92779L3.84103 50.5207L3.55333 52.7569C4.04653 52.7889 4.31595 52.949 4.36162 53.2416C4.33879 53.7721 4.07849 54.0145 3.58987 53.9687H0.83622C0.740322 53.8864 0.67639 53.7904 0.644424 53.6806C0.644424 53.0861 0.932118 52.7935 1.50294 52.8118L1.61254 52.7386L1.64907 52.5831L2.38429 47.3699L2.36146 47.2144C2.1377 47.1824 1.88197 47.2281 1.59884 47.347C1.85457 47.9506 1.6856 48.4811 1.07825 48.9293C0.1421 49.1671 -0.182127 48.6915 0.0964345 47.4888ZM5.83662 47.283H4.32509C4.29312 47.3653 4.27029 47.4522 4.25659 47.5482C4.24289 47.6442 4.22919 47.754 4.21549 47.8729L4.06022 48.975L4.07392 49.0848H4.84568C4.97354 49.103 5.10597 49.0939 5.24297 49.0619H5.3891L5.4987 49.039C5.64939 48.8378 5.75899 48.5863 5.82292 48.289C6.00102 48.1198 6.21565 48.033 6.47594 48.033C6.47594 47.7814 6.42571 47.5711 6.32068 47.3927C6.21565 47.3378 6.07865 47.3058 5.90969 47.3058L5.83662 47.283Z" fill="#EE7664"/>
<path d="M9.9785 48.1425C11.7092 47.955 12.65 48.673 12.7915 50.2964C12.7596 52.0205 11.9239 53.1226 10.2799 53.5981C8.59483 53.8314 7.66781 53.1088 7.48972 51.4351C7.46689 49.7477 8.29344 48.6501 9.9785 48.1425ZM10.3895 49.3224C10.3256 49.3041 10.2479 49.2858 10.1612 49.2812C10.0242 49.3224 9.89631 49.3864 9.77301 49.4733C9.41681 49.9489 9.27525 50.4793 9.33918 51.0693C9.31635 51.5266 9.42595 51.9564 9.67711 52.3497C9.79584 52.4366 9.94654 52.4869 10.1246 52.496C10.2388 52.4549 10.3575 52.3909 10.4854 52.304C10.7914 51.8833 10.9512 51.4122 10.9695 50.8909C11.0425 50.3284 10.9147 49.83 10.5813 49.4047C10.5174 49.3681 10.4534 49.3407 10.3895 49.3224Z" fill="#EE7664"/>
<path d="M15.7053 48.1425C17.436 47.955 18.3767 48.673 18.5183 50.2964C18.4863 52.0205 17.6506 53.1226 16.0067 53.5981C14.3216 53.8314 13.3946 53.1088 13.2165 51.4351C13.1891 49.7477 14.0202 48.6501 15.7053 48.1425ZM16.1117 49.3224C16.0478 49.3041 15.9701 49.2858 15.8834 49.2812C15.7464 49.3224 15.6185 49.3864 15.4952 49.4733C15.139 49.9489 14.9974 50.4793 15.0614 51.0693C15.0385 51.5266 15.1481 51.9564 15.3993 52.3497C15.518 52.4366 15.6687 52.4869 15.8468 52.496C15.961 52.4549 16.0797 52.3909 16.2076 52.304C16.5135 51.8833 16.6734 51.4122 16.6916 50.8909C16.7647 50.3284 16.6368 49.83 16.3035 49.4047C16.2441 49.3681 16.1802 49.3407 16.1117 49.3224Z" fill="#EE7664"/>
<path d="M23.7697 45.9291C24.0437 45.8788 24.2629 45.9657 24.4227 46.1852L23.6144 52.0616C24.1304 52.0616 24.3085 52.3222 24.1441 52.8481C24.1122 52.8893 24.0756 52.9259 24.0437 52.9625C24.0072 52.9991 23.9706 53.0356 23.9295 53.0768L23.5322 53.2231L23.4363 53.246L23.039 53.3923C22.9979 53.4015 22.9568 53.4106 22.9112 53.4243C22.8655 53.4381 22.8153 53.4609 22.7605 53.4929L22.4956 53.5524L22.3997 53.6027C22.3358 53.621 22.2719 53.6301 22.2079 53.6347C22.144 53.6393 22.0709 53.6347 21.9887 53.6301C21.9476 53.6073 21.9111 53.5798 21.8791 53.5524C21.8472 53.5249 21.8106 53.4884 21.7695 53.4472C20.5685 53.9228 19.6643 53.6073 19.0524 52.5052C18.7145 51.4168 18.9519 50.3193 19.7648 49.2172C20.4635 48.3529 21.3585 48.0099 22.4454 48.1791L22.555 47.4062C22.1531 47.4474 21.9522 47.2736 21.9522 46.8849C21.975 46.7066 22.0481 46.5602 22.1714 46.4368C22.3221 46.3544 22.5367 46.2904 22.8107 46.2447L22.9203 46.1944H22.9934L23.2217 46.1212C23.2765 46.0892 23.3633 46.0663 23.4774 46.048L23.7697 45.9291ZM21.5869 49.2766C20.9749 49.6242 20.6781 50.2186 20.6918 51.0647C20.6416 51.7598 20.911 52.1439 21.491 52.2262C21.6188 52.2079 21.7467 52.153 21.8654 52.057C21.8974 51.993 21.9202 51.9152 21.9339 51.8192C21.9476 51.7277 21.9613 51.6226 21.975 51.5128L22.2034 49.8208V49.6287C22.0892 49.3955 21.8837 49.2766 21.5869 49.2766Z" fill="#EE7664"/>
<path d="M26.5048 47.2234C26.5733 47.1502 26.6601 47.0816 26.7651 47.0176H26.8153C27.3633 46.9856 27.5231 47.3972 27.2994 48.2523C27.8611 48.2112 28.1716 48.3392 28.231 48.6273C28.2401 49.2904 27.8702 49.5785 27.1213 49.4962L26.7605 52.1211V52.2903H26.8793C27.1122 52.0068 27.3816 51.929 27.6875 52.0479C27.8885 52.1943 27.9524 52.4092 27.8793 52.6882C27.4135 53.3878 26.7697 53.7217 25.9477 53.6805C25.5549 53.6485 25.2581 53.4244 25.0663 53.0174C25.0663 52.9351 25.0481 52.8528 25.0161 52.7613L24.9933 52.5693L25.4271 49.5328C25.1851 49.4916 25.0115 49.3727 24.9065 49.1715L24.9659 48.7462C25.0526 48.6273 25.1577 48.5267 25.281 48.4444L25.4499 48.3484L26.0436 47.7813L26.1303 47.6853L26.2171 47.5892L26.3039 47.4932L26.3267 47.4566C26.3769 47.3697 26.4363 47.2966 26.5048 47.2234Z" fill="#EE7664"/>
<path d="M30.4137 48.1654L30.4867 48.1151C30.7607 48.0648 30.9708 48.1471 31.1169 48.3575C31.9617 47.8911 32.5234 48.0145 32.7974 48.7325L32.7107 49.3727C32.6878 49.4276 32.6422 49.4962 32.5782 49.5785L32.5554 49.6288C32.0805 50.0221 31.6192 50.0312 31.1672 49.6517C31.1261 49.6928 31.0895 49.7386 31.053 49.798C31.0165 49.8529 30.9754 49.9123 30.9251 49.9809L30.6237 52.1074C30.6146 52.1577 30.61 52.208 30.6055 52.2629C30.6009 52.3178 30.6055 52.3818 30.6237 52.4458C30.9617 52.4275 31.2037 52.5373 31.3498 52.7705C31.3727 52.958 31.3224 53.1638 31.1946 53.3878L31.0256 53.5067H28.3313L28.1852 53.4564C28.0071 53.1729 28.0619 52.8711 28.3404 52.551C28.3724 52.5327 28.4089 52.5235 28.45 52.5144C28.4911 52.5053 28.5368 52.4961 28.5825 52.4915L28.8473 52.4184L29.2355 49.6471C28.7377 49.6974 28.5551 49.455 28.6921 48.92C28.7469 48.824 28.8382 48.7325 28.9569 48.6548C29.03 48.6365 29.1076 48.6136 29.199 48.5816C29.2857 48.5496 29.3862 48.5084 29.5004 48.4627L29.7789 48.4032C29.8291 48.3529 29.8931 48.3301 29.9707 48.3301L30.0438 48.2798L30.1534 48.2569L30.4137 48.1654Z" fill="#EE7664"/>
<path d="M34.9163 48.0832C35.7474 47.9643 36.4096 48.1517 36.9073 48.6502C36.9941 48.7965 37.058 48.9749 37.0991 49.1944L37.1128 49.3133C37.0946 49.4322 37.0991 49.5374 37.1265 49.6151L36.7886 52.0205C37.3777 51.8696 37.5741 52.1394 37.3823 52.83C37.0535 53.3056 36.5922 53.5479 36.0032 53.5571C35.6744 53.5891 35.3912 53.4656 35.1583 53.1821C33.8158 53.9229 32.9618 53.6988 32.5965 52.5053C32.5782 51.6273 33.0257 50.9504 33.9391 50.4748C33.3089 50.4245 33.0714 50.0633 33.213 49.3865C33.5372 48.7005 34.1035 48.2661 34.9163 48.0832ZM35.2086 51.0556C34.8067 51.202 34.5418 51.4718 34.4094 51.865C34.4916 52.1897 34.7245 52.2126 35.1081 51.9382L35.2177 51.1288L35.2086 51.0556ZM35.1583 49.167C35.1264 49.1761 35.0898 49.1853 35.0487 49.199C35.0076 49.2127 34.962 49.2356 34.9163 49.2676C34.9665 49.574 34.8752 49.8621 34.6514 50.1364C34.7017 50.1273 34.7473 50.1136 34.7976 50.0953C34.8478 50.077 34.898 50.0496 34.9528 50.0175L35.4004 49.8621L35.4369 49.5968C35.51 49.359 35.4186 49.2173 35.1583 49.167Z" fill="#EE7664"/>
<path d="M38.1771 48.8927C38.1679 48.5954 38.273 48.3439 38.4922 48.1427H40.8348L40.9535 48.2525L40.9901 48.3028C41.086 48.7052 40.9307 49.0024 40.5197 49.1854L40.8942 50.5756L40.9307 50.6487L41.7025 49.1625C41.3143 49.0253 41.2275 48.7372 41.4376 48.3028L41.6568 48.1473H43.4332C43.456 48.1701 43.4834 48.2022 43.5108 48.2387C43.5382 48.2753 43.5748 48.3119 43.6113 48.3531L43.5245 48.8973C43.4058 49.0436 43.2414 49.1488 43.0405 49.2128L40.7435 53.3605C40.5106 53.5938 40.2503 53.6441 39.958 53.5069C39.9032 53.452 39.4785 52.0389 38.6885 49.2722L38.6018 49.1625C38.4282 49.1488 38.2821 49.0619 38.1771 48.8927Z" fill="#EE7664"/>
<path d="M46.0269 48.0923C46.9357 48.0054 47.5795 48.2523 47.9586 48.8422C48.3467 49.423 48.3239 49.8346 47.8992 50.077L45.3876 51.5266V51.6821C45.9812 52.4961 46.7119 52.3132 47.575 51.1379C47.6617 51.1059 47.785 51.0876 47.9357 51.0876C48.4015 51.2659 48.4609 51.5998 48.1184 52.0937C47.2964 53.4747 46.1502 53.9915 44.6752 53.6531L44.3236 53.461L44.1683 53.3421C43.5701 52.6744 43.4011 51.8101 43.6477 50.7538C43.8441 49.4139 44.6341 48.5267 46.0269 48.0923ZM45.9082 49.2904C45.3693 49.4825 45.173 49.8483 45.3145 50.3788L46.5475 49.6517C46.4288 49.3956 46.2141 49.2721 45.9082 49.2904Z" fill="#EE7664"/>
<path d="M50.9224 46.062L51.3699 45.9293C51.7078 45.8653 51.9179 45.9888 52.0001 46.3043L51.1416 52.4505C51.6987 52.4825 51.8905 52.766 51.7215 53.2965C51.6896 53.3285 51.653 53.3651 51.6165 53.4017C51.58 53.4382 51.5389 53.4748 51.4886 53.516H48.7213C48.6254 53.452 48.566 53.3651 48.5523 53.2508C48.5295 52.7569 48.8081 52.4916 49.388 52.4505C49.4063 52.3956 49.42 52.3316 49.4291 52.2676C49.4428 52.2035 49.4519 52.1349 49.4611 52.0618L50.1232 47.3927C49.4793 47.443 49.2738 47.1549 49.5067 46.533C49.5387 46.4781 49.5981 46.4232 49.6894 46.3775L50.2557 46.2312C50.3698 46.2083 50.4657 46.1809 50.5434 46.158C50.6255 46.1351 50.6986 46.1077 50.7717 46.0848L50.9224 46.062Z" fill="#EE7664"/>
<path d="M3.0673 56.1559L2.49868 58.1176H2.21254L1.75764 56.5379L1.28441 58.1176L1.00193 58.1213L0.45166 56.1559H0.723129L1.15234 57.8201L1.62558 56.1559H1.91172L2.36295 57.8164L2.79216 56.1559H3.0673Z" fill="#3093A9"/>
<path d="M5.04851 56.6222C5.14389 56.6736 5.21726 56.7471 5.26862 56.8463C5.32365 56.9455 5.34933 57.0667 5.34933 57.21V58.1211H5.0962V57.2467C5.0962 57.0924 5.05952 56.9749 4.98248 56.8941C4.90544 56.8132 4.79906 56.7728 4.66699 56.7728C4.53126 56.7728 4.42487 56.8132 4.34416 56.8977C4.26346 56.9822 4.2231 57.1035 4.2231 57.2651V58.1174H3.96631V56.0344H4.2231V56.7949C4.27446 56.7177 4.34416 56.6553 4.43221 56.6112C4.52025 56.5671 4.6193 56.5451 4.73302 56.5451C4.85042 56.5487 4.95313 56.5745 5.04851 56.6222Z" fill="#3093A9"/>
<path d="M7.78482 57.4454H6.5522C6.56321 57.596 6.61457 57.7173 6.70995 57.8018C6.80533 57.8863 6.91905 57.9303 7.05479 57.9303C7.16484 57.9303 7.25656 57.9046 7.33359 57.8532C7.40696 57.8018 7.45832 57.732 7.49134 57.6475H7.76648C7.72612 57.7944 7.64175 57.9156 7.52069 58.0112C7.39963 58.1067 7.24188 58.1508 7.05846 58.1508C6.91172 58.1508 6.78332 58.1177 6.66593 58.0516C6.54854 57.9854 6.46049 57.8936 6.39446 57.7724C6.32843 57.6511 6.29541 57.5115 6.29541 57.3499C6.29541 57.1883 6.32843 57.0487 6.39079 56.9311C6.45316 56.8135 6.54487 56.718 6.65859 56.6556C6.77231 56.5894 6.90805 56.5601 7.05479 56.5601C7.20153 56.5601 7.32993 56.5931 7.44365 56.6556C7.55737 56.718 7.64175 56.8062 7.70411 56.9201C7.76648 57.0303 7.79582 57.1589 7.79582 57.2985C7.79216 57.3389 7.78849 57.3903 7.78482 57.4454ZM7.46199 56.9825C7.41797 56.9127 7.35927 56.8576 7.2859 56.8209C7.21253 56.7841 7.12816 56.7658 7.04011 56.7658C6.91172 56.7658 6.80166 56.8062 6.70995 56.8907C6.61824 56.9715 6.56688 57.0891 6.5522 57.236H7.52436C7.52802 57.1368 7.50601 57.056 7.46199 56.9825Z" fill="#3093A9"/>
<path d="M9.19731 56.6224C9.28169 56.5747 9.38074 56.549 9.5018 56.549V56.8135H9.43576C9.14962 56.8135 9.00655 56.9678 9.00655 57.28V58.1176H8.74976V56.5747H9.00655V56.8245C9.05057 56.74 9.11294 56.6702 9.19731 56.6224Z" fill="#3093A9"/>
<path d="M11.8131 57.4454H10.5805C10.5915 57.596 10.6429 57.7173 10.7383 57.8018C10.8337 57.8863 10.9474 57.9303 11.0831 57.9303C11.1932 57.9303 11.2849 57.9046 11.3619 57.8532C11.4353 57.8018 11.4866 57.732 11.5197 57.6475H11.7948C11.7544 57.7944 11.6701 57.9156 11.549 58.0112C11.4279 58.1067 11.2702 58.1508 11.0868 58.1508C10.94 58.1508 10.8116 58.1177 10.6942 58.0516C10.5769 57.9854 10.4888 57.8936 10.4228 57.7724C10.3567 57.6511 10.3237 57.5115 10.3237 57.3499C10.3237 57.1883 10.3567 57.0487 10.4191 56.9311C10.4815 56.8135 10.5732 56.718 10.6869 56.6556C10.8006 56.5894 10.9364 56.5601 11.0831 56.5601C11.2298 56.5601 11.3582 56.5931 11.472 56.6556C11.5857 56.718 11.6701 56.8062 11.7324 56.9201C11.7948 57.0303 11.8241 57.1589 11.8241 57.2985C11.8241 57.3389 11.8205 57.3903 11.8131 57.4454ZM11.494 56.9825C11.45 56.9127 11.3913 56.8576 11.3179 56.8209C11.2445 56.7841 11.1601 56.7658 11.0721 56.7658C10.9437 56.7658 10.8337 56.8062 10.7419 56.8907C10.6502 56.9715 10.5989 57.0891 10.5842 57.236H11.5563C11.56 57.1368 11.538 57.056 11.494 56.9825Z" fill="#3093A9"/>
<path d="M15.2575 56.1559V56.3653H14.4065V57.0265H15.0998V57.2359H14.4065V58.1213H14.1497V56.1596H15.2575V56.1559Z" fill="#3093A9"/>
<path d="M16.4645 58.0477C16.3471 57.9815 16.2554 57.8897 16.1894 57.7685C16.1233 57.6472 16.0903 57.5076 16.0903 57.346C16.0903 57.188 16.1233 57.0484 16.193 56.9272C16.2628 56.806 16.3545 56.7141 16.4719 56.648C16.5892 56.5819 16.7213 56.5525 16.8681 56.5525C17.0148 56.5525 17.1469 56.5856 17.2643 56.648C17.3816 56.7141 17.477 56.806 17.5431 56.9235C17.6128 57.0448 17.6458 57.1844 17.6458 57.3423C17.6458 57.5003 17.6091 57.6436 17.5394 57.7648C17.4697 57.886 17.3743 57.9779 17.2532 58.044C17.1322 58.1101 17.0001 58.1432 16.8534 58.1432C16.714 58.1469 16.5819 58.1138 16.4645 58.0477ZM17.1175 57.8566C17.1982 57.8126 17.2642 57.7501 17.3119 57.6619C17.3633 57.5774 17.3853 57.4709 17.3853 57.346C17.3853 57.2211 17.3596 57.1182 17.3119 57.0301C17.2642 56.9419 17.1982 56.8794 17.1212 56.8354C17.0441 56.7913 16.9561 56.7729 16.8644 56.7729C16.769 56.7729 16.6846 56.795 16.6076 56.8354C16.5306 56.8758 16.4682 56.9419 16.4205 57.0301C16.3728 57.1182 16.3508 57.2211 16.3508 57.346C16.3508 57.4709 16.3728 57.5774 16.4205 57.6656C16.4682 57.7538 16.5269 57.8162 16.6039 57.8603C16.681 57.9044 16.7653 57.9228 16.857 57.9228C16.9488 57.9191 17.0368 57.8971 17.1175 57.8566Z" fill="#3093A9"/>
<path d="M18.882 58.0477C18.7646 57.9815 18.6729 57.8897 18.6069 57.7685C18.5408 57.6472 18.5078 57.5076 18.5078 57.346C18.5078 57.188 18.5408 57.0484 18.6105 56.9272C18.6802 56.806 18.7719 56.7141 18.8893 56.648C19.0067 56.5819 19.1388 56.5525 19.2855 56.5525C19.4323 56.5525 19.5643 56.5856 19.6817 56.648C19.7991 56.7141 19.8945 56.806 19.9605 56.9235C20.0302 57.0448 20.0633 57.1844 20.0633 57.3423C20.0633 57.5003 20.0266 57.6436 19.9569 57.7648C19.8872 57.886 19.7918 57.9779 19.6707 58.044C19.5497 58.1101 19.4176 58.1432 19.2709 58.1432C19.1315 58.1469 18.9994 58.1138 18.882 58.0477ZM19.535 57.8566C19.6157 57.8126 19.6817 57.7501 19.7294 57.6619C19.7808 57.5774 19.8028 57.4709 19.8028 57.346C19.8028 57.2211 19.7771 57.1182 19.7294 57.0301C19.6817 56.9419 19.6157 56.8794 19.5387 56.8354C19.4616 56.7913 19.3736 56.7729 19.2819 56.7729C19.1865 56.7729 19.1021 56.795 19.0251 56.8354C18.948 56.8758 18.8857 56.9419 18.838 57.0301C18.7903 57.1182 18.7683 57.2211 18.7683 57.346C18.7683 57.4709 18.7903 57.5774 18.838 57.6656C18.8857 57.7538 18.9444 57.8162 19.0214 57.8603C19.0984 57.9044 19.1828 57.9228 19.2745 57.9228C19.3662 57.9191 19.4543 57.8971 19.535 57.8566Z" fill="#3093A9"/>
<path d="M21.0209 56.9272C21.0833 56.8097 21.1713 56.7142 21.285 56.6517C21.3988 56.5893 21.5235 56.5525 21.6592 56.5525C21.7803 56.5525 21.8904 56.5819 21.9931 56.637C22.0958 56.6921 22.1765 56.7656 22.2279 56.8538V56.0382H22.4883V58.1212H22.2315V57.831C22.1802 57.9228 22.1068 58 22.0077 58.0587C21.9087 58.1175 21.7913 58.1469 21.6592 58.1469C21.5235 58.1469 21.3988 58.1138 21.285 58.044C21.1713 57.9742 21.087 57.8824 21.0209 57.7612C20.9549 57.6399 20.9255 57.5003 20.9255 57.346C20.9255 57.1844 20.9586 57.0485 21.0209 56.9272ZM22.1618 57.0411C22.1141 56.9566 22.0518 56.8868 21.9711 56.8427C21.8904 56.7987 21.8023 56.7729 21.7069 56.7729C21.6115 56.7729 21.5235 56.795 21.4465 56.8391C21.3694 56.8832 21.3034 56.9493 21.2594 57.0374C21.2117 57.1256 21.1897 57.2248 21.1897 57.3424C21.1897 57.4599 21.2117 57.5628 21.2594 57.651C21.3071 57.7391 21.3694 57.8052 21.4465 57.8493C21.5235 57.8971 21.6115 57.9191 21.7069 57.9191C21.8023 57.9191 21.8904 57.8971 21.9711 57.8493C22.0518 57.8016 22.1141 57.7354 22.1618 57.651C22.2095 57.5628 22.2315 57.4636 22.2315 57.346C22.2315 57.2285 22.2095 57.1293 22.1618 57.0411Z" fill="#3093A9"/>
<path d="M27.0848 56.6224C27.1802 56.6739 27.2536 56.7473 27.3086 56.8465C27.3636 56.9457 27.3893 57.0669 27.3893 57.2102V58.1213H27.1362V57.2469C27.1362 57.0927 27.0995 56.9751 27.0225 56.8943C26.9454 56.8135 26.8427 56.773 26.7143 56.773C26.5823 56.773 26.4759 56.8171 26.3952 56.9016C26.3181 56.9861 26.2778 57.111 26.2778 57.2727V58.125H26.0246V57.2506C26.0246 57.0963 25.988 56.9788 25.9109 56.8979C25.8339 56.8171 25.7312 56.7767 25.6028 56.7767C25.4707 56.7767 25.3643 56.8208 25.2836 56.9053C25.2066 56.9898 25.1662 57.1147 25.1662 57.2763V58.1286H24.9094V56.5857H25.1662V56.8098C25.2176 56.729 25.2836 56.6665 25.3717 56.6224C25.4597 56.5783 25.5514 56.5563 25.6541 56.5563C25.7825 56.5563 25.8962 56.5857 25.999 56.6445C26.098 56.7032 26.1714 56.7877 26.2227 56.9016C26.2668 56.7914 26.3365 56.7069 26.4355 56.6481C26.5346 56.5894 26.6446 56.5563 26.7657 56.5563C26.8867 56.5489 26.9931 56.5747 27.0848 56.6224Z" fill="#3093A9"/>
<path d="M29.8251 57.4454H28.5925C28.6035 57.596 28.6549 57.7173 28.7502 57.8018C28.8456 57.8863 28.9593 57.9303 29.0951 57.9303C29.2051 57.9303 29.2968 57.9046 29.3739 57.8532C29.4472 57.8018 29.4986 57.732 29.5316 57.6475H29.8068C29.7664 57.7944 29.682 57.9156 29.561 58.0112C29.4399 58.1067 29.2822 58.1508 29.0987 58.1508C28.952 58.1508 28.8236 58.1177 28.7062 58.0516C28.5888 57.9854 28.5008 57.8936 28.4347 57.7724C28.3687 57.6511 28.3357 57.5115 28.3357 57.3499C28.3357 57.1883 28.3687 57.0487 28.4311 56.9311C28.4934 56.8135 28.5852 56.718 28.6989 56.6556C28.8126 56.5894 28.9483 56.5601 29.0951 56.5601C29.2418 56.5601 29.3702 56.5931 29.4839 56.6556C29.5977 56.718 29.682 56.8062 29.7444 56.9201C29.8068 57.0303 29.8361 57.1589 29.8361 57.2985C29.8324 57.3389 29.8324 57.3903 29.8251 57.4454ZM29.5059 56.9825C29.4619 56.9127 29.4032 56.8576 29.3299 56.8209C29.2565 56.7841 29.1721 56.7658 29.0841 56.7658C28.9557 56.7658 28.8456 56.8062 28.7539 56.8907C28.6622 56.9715 28.6108 57.0891 28.5962 57.236H29.5683C29.5683 57.1368 29.5463 57.056 29.5059 56.9825Z" fill="#3093A9"/>
<path d="M32.1876 57.4454H30.955C30.966 57.596 31.0174 57.7173 31.1128 57.8018C31.2082 57.8863 31.3219 57.9303 31.4576 57.9303C31.5677 57.9303 31.6594 57.9046 31.7364 57.8532C31.8098 57.8018 31.8612 57.732 31.8942 57.6475H32.1693C32.129 57.7944 32.0446 57.9156 31.9235 58.0112C31.8025 58.1067 31.6447 58.1508 31.4613 58.1508C31.3145 58.1508 31.1862 58.1177 31.0688 58.0516C30.9514 57.9854 30.8633 57.8936 30.7973 57.7724C30.7313 57.6511 30.6982 57.5115 30.6982 57.3499C30.6982 57.1883 30.7313 57.0487 30.7936 56.9311C30.856 56.8135 30.9477 56.718 31.0614 56.6556C31.1751 56.5894 31.3109 56.5601 31.4576 56.5601C31.6044 56.5601 31.7328 56.5931 31.8465 56.6556C31.9602 56.718 32.0446 56.8062 32.1069 56.9201C32.1693 57.0303 32.1987 57.1589 32.1987 57.2985C32.195 57.3389 32.195 57.3903 32.1876 57.4454ZM31.8685 56.9825C31.8245 56.9127 31.7658 56.8576 31.6924 56.8209C31.619 56.7841 31.5347 56.7658 31.4466 56.7658C31.3182 56.7658 31.2082 56.8062 31.1165 56.8907C31.0247 56.9715 30.9734 57.0891 30.9587 57.236H31.9309C31.9309 57.1368 31.9088 57.056 31.8685 56.9825Z" fill="#3093A9"/>
<path d="M33.4647 56.7877V57.6987C33.4647 57.7759 33.4793 57.8273 33.5123 57.8567C33.5454 57.8861 33.6004 57.9045 33.6774 57.9045H33.8645V58.1212H33.6334C33.4903 58.1212 33.3839 58.0881 33.3142 58.022C33.2445 57.9559 33.2079 57.8494 33.2079 57.6987V56.7877H33.0098V56.5746H33.2079V56.1852H33.4647V56.5746H33.8682V56.7877H33.4647Z" fill="#3093A9"/>
<path d="M35.0237 58.0846C34.9284 58.0442 34.855 57.9891 34.8 57.9156C34.7449 57.8421 34.7156 57.7613 34.7083 57.6658H34.9724C34.9797 57.7429 35.0164 57.8054 35.0788 57.8531C35.1448 57.9009 35.2292 57.9266 35.3319 57.9266C35.4309 57.9266 35.508 57.9046 35.563 57.8605C35.618 57.8164 35.6474 57.7613 35.6474 57.6952C35.6474 57.629 35.618 57.5776 35.5557 57.5445C35.497 57.5115 35.4016 57.4784 35.2769 57.449C35.1631 57.4196 35.0678 57.3902 34.9981 57.3572C34.9247 57.3278 34.8623 57.28 34.811 57.2176C34.7596 57.1551 34.7339 57.078 34.7339 56.9751C34.7339 56.898 34.7559 56.8245 34.8036 56.7584C34.8513 56.6922 34.9174 56.6408 35.0017 56.6004C35.0861 56.5637 35.1852 56.5416 35.2989 56.5416C35.4676 56.5416 35.607 56.5857 35.7134 56.6702C35.8198 56.7584 35.8748 56.8759 35.8822 57.0265H35.6254C35.618 56.9457 35.5887 56.8796 35.53 56.8318C35.4713 56.7841 35.3906 56.7584 35.2915 56.7584C35.1998 56.7584 35.1265 56.7767 35.0714 56.8172C35.0164 56.8576 34.9907 56.909 34.9907 56.9714C34.9907 57.0229 35.0054 57.0633 35.0384 57.0963C35.0714 57.1294 35.1118 57.1551 35.1631 57.1735C35.2145 57.1919 35.2805 57.2139 35.3686 57.2396C35.4786 57.269 35.5703 57.2984 35.64 57.3278C35.7098 57.3572 35.7684 57.4013 35.8198 57.46C35.8712 57.5188 35.8968 57.596 35.8968 57.6878C35.8968 57.7723 35.8748 57.8495 35.8271 57.9156C35.7795 57.9817 35.7134 58.0368 35.629 58.0735C35.5447 58.1103 35.4456 58.1323 35.3356 58.1323C35.2218 58.147 35.1155 58.125 35.0237 58.0846Z" fill="#3093A9"/>
<path d="M38.2846 56.6223C38.3727 56.468 38.4901 56.3504 38.6368 56.2622C38.7872 56.1741 38.9523 56.1337 39.1321 56.1337C39.3448 56.1337 39.5319 56.1851 39.6933 56.288C39.8511 56.3908 39.9685 56.5378 40.0419 56.7288H39.7337C39.6787 56.6112 39.6016 56.5194 39.4989 56.4569C39.3962 56.3945 39.2751 56.3614 39.1321 56.3614C38.9963 56.3614 38.8716 56.3945 38.7652 56.4569C38.6552 56.5194 38.5708 56.6112 38.5084 56.7288C38.4461 56.8464 38.4167 56.9823 38.4167 57.1403C38.4167 57.2945 38.4461 57.4341 38.5084 57.5517C38.5708 57.6693 38.6552 57.7611 38.7652 57.8236C38.8753 57.886 38.9963 57.9191 39.1321 57.9191C39.2751 57.9191 39.3962 57.886 39.4989 57.8236C39.6016 57.7611 39.6787 57.6693 39.7337 57.5517H40.0419C39.9685 57.7391 39.8511 57.886 39.6933 57.9852C39.5356 58.0881 39.3485 58.1395 39.1321 58.1395C38.9486 58.1395 38.7836 58.0954 38.6368 58.0109C38.4901 57.9264 38.369 57.8052 38.2846 57.6546C38.2003 57.5039 38.1562 57.3313 38.1562 57.1403C38.1562 56.9492 38.2003 56.7729 38.2846 56.6223Z" fill="#3093A9"/>
<path d="M42.4082 56.5784V58.1213H42.1514V57.8936C42.1037 57.9707 42.034 58.0332 41.9459 58.0772C41.8579 58.1213 41.7625 58.1434 41.6561 58.1434C41.5351 58.1434 41.4287 58.1177 41.3333 58.0699C41.2379 58.0185 41.1609 57.945 41.1059 57.8458C41.0508 57.7466 41.0215 57.6254 41.0215 57.4821V56.5784H41.2746V57.449C41.2746 57.5997 41.3113 57.7172 41.3883 57.798C41.4654 57.8789 41.5718 57.9193 41.7038 57.9193C41.8396 57.9193 41.9496 57.8752 42.0267 57.7907C42.1037 57.7062 42.144 57.585 42.144 57.4233V56.5747H42.4082V56.5784Z" fill="#3093A9"/>
<path d="M43.7177 56.0344V58.1174H43.4609V56.0344H43.7177Z" fill="#3093A9"/>
<path d="M45.0826 56.7877V57.6987C45.0826 57.7759 45.0973 57.8273 45.1303 57.8567C45.1633 57.8861 45.2183 57.9045 45.2954 57.9045H45.4824V58.1212H45.2513C45.1083 58.1212 45.0019 58.0881 44.9322 58.022C44.8625 57.9559 44.8258 57.8494 44.8258 57.6987V56.7877H44.6277V56.5746H44.8258V56.1852H45.0826V56.5746H45.4861V56.7877H45.0826Z" fill="#3093A9"/>
<path d="M47.779 56.5784V58.1213H47.5222V57.8936C47.4745 57.9707 47.4048 58.0332 47.3168 58.0772C47.2287 58.1213 47.1334 58.1434 47.027 58.1434C46.9059 58.1434 46.7995 58.1177 46.7042 58.0699C46.6088 58.0185 46.5317 57.945 46.4767 57.8458C46.4217 57.7466 46.3923 57.6254 46.3923 57.4821V56.5784H46.6455V57.449C46.6455 57.5997 46.6821 57.7172 46.7592 57.798C46.8362 57.8789 46.9426 57.9193 47.0747 57.9193C47.2104 57.9193 47.3205 57.8752 47.3975 57.7907C47.4745 57.7062 47.5149 57.585 47.5149 57.4233V56.5747H47.779V56.5784Z" fill="#3093A9"/>
<path d="M49.2791 56.6224C49.3635 56.5747 49.4625 56.549 49.5836 56.549V56.8135H49.5175C49.2314 56.8135 49.0883 56.9678 49.0883 57.28V58.1176H48.8315V56.5747H49.0883V56.8245C49.1324 56.74 49.1984 56.6702 49.2791 56.6224Z" fill="#3093A9"/>
<path d="M51.8983 57.4454H50.6657C50.6767 57.596 50.7281 57.7173 50.8235 57.8018C50.9189 57.8863 51.0326 57.9303 51.1683 57.9303C51.2784 57.9303 51.3701 57.9046 51.4471 57.8532C51.5205 57.8018 51.5718 57.732 51.6049 57.6475H51.88C51.8396 57.7944 51.7553 57.9156 51.6342 58.0112C51.5132 58.1067 51.3554 58.1508 51.172 58.1508C51.0252 58.1508 50.8968 58.1177 50.7795 58.0516C50.6621 57.9854 50.574 57.8936 50.508 57.7724C50.4419 57.6511 50.4089 57.5115 50.4089 57.3499C50.4089 57.1883 50.4419 57.0487 50.5043 56.9311C50.5667 56.8135 50.6584 56.718 50.7721 56.6556C50.8858 56.5894 51.0216 56.5601 51.1683 56.5601C51.3151 56.5601 51.4434 56.5931 51.5572 56.6556C51.6709 56.718 51.7553 56.8062 51.8176 56.9201C51.88 57.0303 51.9093 57.1589 51.9093 57.2985C51.9057 57.3389 51.902 57.3903 51.8983 57.4454ZM51.5755 56.9825C51.5315 56.9127 51.4728 56.8576 51.3994 56.8209C51.3261 56.7841 51.2417 56.7658 51.1536 56.7658C51.0252 56.7658 50.9152 56.8062 50.8235 56.8907C50.7318 56.9715 50.6804 57.0891 50.6657 57.236H51.6379C51.6415 57.1368 51.6195 57.056 51.5755 56.9825Z" fill="#3093A9"/>
<path d="M47.0379 20.1097C47.0379 31.2152 38.0464 40.2194 26.9566 40.2194C26.1238 40.2194 24.5023 40.0724 24.5023 40.0724L21.0466 43.5698C21.0466 43.5698 19.5792 38.8454 18.7171 38.456C11.7397 35.3077 6.87891 28.2799 6.87891 20.1134C6.87891 9.00418 15.8704 0 26.9602 0C38.0501 0 47.0379 9.00418 47.0379 20.1097Z" fill="#3093A9"/>
<path d="M6.87867 17.9568C6.87867 17.9568 8.4121 15.253 15.551 13.0892C15.551 13.0892 19.9202 11.7079 21.4426 11.5499C21.4426 11.5499 21.1014 6.81086 28.4971 5.7455C28.4971 5.7455 34.994 4.82708 36.6852 8.53014C36.6852 8.53014 37.5143 10.7343 31.74 13.9451C31.74 13.9451 25.5696 17.7878 21.8094 13.0377C21.8094 13.0377 16.171 15.0877 12.1466 18.6511C12.1466 18.6511 7.34824 22.3101 7.96821 26.6487C7.96821 26.6561 6.48614 23.4306 6.87867 17.9568Z" fill="white"/>
<path d="M45.0019 11.2782C45.0019 11.2782 46.0584 14.658 45.0019 17.0348C43.9454 19.4117 40.9959 22.6005 36.7221 23.3021C33.215 23.8752 33.1087 21.5829 30.7168 22.3507C28.3249 23.1185 21.4282 25.4255 21.4282 25.4255C21.4282 25.4255 20.8706 26.1051 21.6813 26.2411L28.6148 24.3344C28.6148 24.3344 29.4255 24.1948 29.5796 24.5916C29.7336 24.992 28.9413 25.1941 28.9413 25.1941L22.0958 27.2293C22.0958 27.2293 21.3548 28.0816 22.4554 28.3057L28.9853 26.4284C28.9853 26.4284 29.6199 26.1345 29.873 26.4909C30.1298 26.8472 29.9097 27.064 29.4108 27.2072C28.9119 27.3505 22.5287 29.3233 22.5287 29.3233C22.5287 29.3233 22.0298 30.2013 23.1194 30.2013L29.9831 28.28C29.9831 28.28 30.405 28.1514 30.504 28.5775C30.6031 29.0037 30.0381 29.022 30.0381 29.022L23.4789 30.9728C23.4789 30.9728 23.0093 31.3438 23.1304 31.6524C23.2551 31.961 23.5559 32.1447 24.2749 31.9647C24.9903 31.7883 30.8672 30.2491 30.8672 30.2491C30.8672 30.2491 33.4168 29.8192 34.1138 29.0404C34.8108 28.2616 36.2049 26.2484 37.9474 25.4439C39.6899 24.6394 45.0056 22.9752 46.4363 21.3551C46.9536 20.771 47.1113 20.0436 47.0416 18.2839C46.9682 16.5279 46.2125 13.7359 45.0019 11.2782Z" fill="white"/>
</svg>
