<svg width="53" height="59" viewBox="0 0 53 59" fill="none" xmlns="http://www.w3.org/2000/svg">
<path d="M0.0779832 48.2892C0.447267 47.4682 1.10828 47.0392 2.04996 47.0096H5.93851L6.09361 47.0281C6.17116 47.0688 6.24132 47.1428 6.30041 47.2537L6.10469 48.8106C6.0973 48.8254 6.08992 48.8365 6.07884 48.8513C6.06776 48.8661 6.06038 48.8809 6.05299 48.8993C5.90158 49.0029 5.73541 49.0584 5.54338 49.0658L5.24057 51.2661C5.21472 51.3105 5.18517 51.3549 5.14824 51.3918C5.11132 51.4325 5.07439 51.4732 5.03746 51.5176C4.8602 51.5693 4.67556 51.5693 4.47984 51.5176C4.42076 51.4584 4.38383 51.3955 4.36167 51.3327C4.36906 51.1884 4.35059 51.0183 4.31366 50.8223L4.30259 50.7817C4.09948 50.7373 3.85575 50.7151 3.5714 50.7225H3.17627L3.10611 50.741L2.87346 52.5493C3.27229 52.5752 3.49016 52.7046 3.52709 52.9413C3.50863 53.3703 3.29814 53.5663 2.903 53.5293H0.676222C0.598673 53.4627 0.546973 53.3851 0.521123 53.2963C0.521123 52.8156 0.753772 52.5789 1.21538 52.5937L1.304 52.5345L1.33355 52.4088L1.92809 48.193L1.90963 48.0673C1.72868 48.0414 1.52188 48.0784 1.29293 48.1745C1.49972 48.6627 1.36309 49.0916 0.871943 49.4541C0.114912 49.6464 -0.14728 49.2618 0.0779832 48.2892ZM4.71988 48.1228H3.49755C3.4717 48.1893 3.45323 48.2596 3.44216 48.3372C3.43108 48.4149 3.42 48.5037 3.40892 48.5998L3.28336 49.491L3.29444 49.5798H3.91853C4.02193 49.5946 4.12902 49.5872 4.23981 49.5613H4.35798L4.44661 49.5428C4.56847 49.3801 4.6571 49.1767 4.7088 48.9363C4.85282 48.7995 5.02638 48.7292 5.23687 48.7292C5.23687 48.5258 5.19625 48.3557 5.11132 48.2115C5.02638 48.1671 4.9156 48.1412 4.77896 48.1412L4.71988 48.1228Z" fill="#EE7664"/>
<path d="M8.06912 48.818C9.4687 48.6664 10.2294 49.247 10.3439 50.5598C10.3181 51.9539 9.64227 52.8452 8.31285 53.2298C6.95019 53.4184 6.20055 52.8341 6.05652 51.4806C6.03806 50.116 6.70646 49.2285 8.06912 48.818ZM8.40147 49.7721C8.34978 49.7573 8.287 49.7425 8.21683 49.7388C8.10605 49.7721 8.00265 49.8239 7.90294 49.8941C7.6149 50.2787 7.50042 50.7077 7.55212 51.1847C7.53366 51.5545 7.62229 51.9022 7.82539 52.2202C7.92141 52.2905 8.04327 52.3311 8.18729 52.3385C8.27961 52.3052 8.37562 52.2535 8.47902 52.1832C8.72644 51.843 8.85569 51.4621 8.87047 51.0405C8.92955 50.5857 8.82615 50.1826 8.55657 49.8386C8.50487 49.8091 8.45317 49.7869 8.40147 49.7721Z" fill="#EE7664"/>
<path d="M12.7001 48.818C14.0997 48.6664 14.8604 49.247 14.9749 50.5598C14.9491 51.9539 14.2733 52.8452 12.9439 53.2298C11.5812 53.4184 10.8316 52.8341 10.6875 51.4806C10.6654 50.116 11.3375 49.2285 12.7001 48.818ZM13.0288 49.7721C12.9771 49.7573 12.9143 49.7425 12.8442 49.7388C12.7334 49.7721 12.63 49.8239 12.5303 49.8941C12.2422 50.2787 12.1277 50.7077 12.1794 51.1847C12.161 51.5545 12.2496 51.9022 12.4527 52.2202C12.5487 52.2905 12.6706 52.3311 12.8146 52.3385C12.9069 52.3052 13.0029 52.2535 13.1063 52.1832C13.3538 51.843 13.483 51.4621 13.4978 51.0405C13.5569 50.5857 13.4535 50.1826 13.1839 49.8386C13.1359 49.8091 13.0842 49.7869 13.0288 49.7721Z" fill="#EE7664"/>
<path d="M19.2217 47.0281C19.4433 46.9874 19.6205 47.0576 19.7498 47.2351L19.0961 51.9871C19.5134 51.9871 19.6574 52.1979 19.5245 52.6232C19.4987 52.6565 19.4691 52.6861 19.4433 52.7157C19.4137 52.7452 19.3842 52.7748 19.3509 52.8081L19.0297 52.9264L18.9521 52.9449L18.6308 53.0633C18.5976 53.0707 18.5644 53.0781 18.5274 53.0892C18.4905 53.1003 18.4499 53.1187 18.4056 53.1446L18.1914 53.1927L18.1138 53.2334C18.0621 53.2482 18.0104 53.2556 17.9587 53.2593C17.907 53.263 17.848 53.2593 17.7815 53.2556C17.7482 53.2371 17.7187 53.2149 17.6929 53.1927C17.667 53.1705 17.6375 53.1409 17.6042 53.1077C16.633 53.4922 15.9018 53.2371 15.407 52.3459C15.1337 51.4657 15.3257 50.5782 15.9831 49.687C16.5481 48.988 17.2719 48.7107 18.1508 48.8475L18.2394 48.2225C17.9144 48.2558 17.7519 48.1153 17.7519 47.8009C17.7704 47.6567 17.8295 47.5384 17.9292 47.4385C18.0511 47.372 18.2246 47.3202 18.4462 47.2832L18.5348 47.2425H18.5939L18.7785 47.1834C18.8229 47.1575 18.893 47.139 18.9853 47.1242L19.2217 47.0281ZM17.4565 49.735C16.9617 50.0161 16.7216 50.4968 16.7327 51.181C16.6921 51.7431 16.91 52.0537 17.379 52.1203C17.4824 52.1055 17.5858 52.0611 17.6818 51.9834C17.7076 51.9317 17.7261 51.8688 17.7372 51.7911C17.7482 51.7172 17.7593 51.6321 17.7704 51.5434L17.955 50.1751V50.0198C17.8627 49.8312 17.6965 49.735 17.4565 49.735Z" fill="#EE7664"/>
<path d="M21.4336 48.0747C21.489 48.0155 21.5592 47.96 21.6441 47.9083H21.6847C22.1279 47.8824 22.2571 48.2152 22.0762 48.9067C22.5304 48.8735 22.7815 48.977 22.8295 49.21C22.8369 49.7462 22.5378 49.9792 21.9321 49.9126L21.6404 52.0353V52.1721H21.7364C21.9248 51.9428 22.1426 51.88 22.39 51.9761C22.5525 52.0945 22.6042 52.2683 22.5451 52.4938C22.1685 53.0596 21.6478 53.3296 20.9831 53.2963C20.6655 53.2704 20.4255 53.0892 20.2704 52.7601C20.2704 52.6935 20.2556 52.627 20.2297 52.553L20.2113 52.3977L20.5621 49.9422C20.3664 49.9089 20.226 49.8128 20.1411 49.65L20.1891 49.3061C20.2593 49.21 20.3442 49.1286 20.4439 49.0621L20.5806 48.9844L21.0606 48.5258L21.1308 48.4482L21.201 48.3705L21.2711 48.2929L21.2896 48.2633C21.3302 48.193 21.3782 48.1338 21.4336 48.0747Z" fill="#EE7664"/>
<path d="M24.5946 48.8365L24.6537 48.7958C24.8752 48.7551 25.0451 48.8217 25.1633 48.9918C25.8465 48.6146 26.3007 48.7144 26.5223 49.295L26.4521 49.8127C26.4336 49.8571 26.3967 49.9126 26.345 49.9791L26.3265 50.0198C25.9425 50.3379 25.5695 50.3453 25.2039 50.0383C25.1707 50.0716 25.1411 50.1086 25.1116 50.1567C25.082 50.201 25.0488 50.2491 25.0082 50.3046L24.7645 52.0242C24.7571 52.0649 24.7534 52.1055 24.7497 52.1499C24.746 52.1943 24.7497 52.2461 24.7645 52.2978C25.0377 52.283 25.2335 52.3718 25.3516 52.5604C25.3701 52.712 25.3295 52.8784 25.2261 53.0596L25.0894 53.1558H22.9107L22.7925 53.1151C22.6485 52.8858 22.6928 52.6417 22.918 52.3829C22.9439 52.3681 22.9734 52.3607 23.0067 52.3533C23.0399 52.3459 23.0768 52.3385 23.1138 52.3348L23.328 52.2756L23.6418 50.0346C23.2393 50.0753 23.0916 49.8793 23.2024 49.4466C23.2467 49.369 23.3206 49.295 23.4166 49.2321C23.4757 49.2174 23.5384 49.1989 23.6123 49.173C23.6825 49.1471 23.7637 49.1138 23.856 49.0768L24.0813 49.0288C24.1219 48.9881 24.1736 48.9696 24.2364 48.9696L24.2955 48.9289L24.3841 48.9104L24.5946 48.8365Z" fill="#EE7664"/>
<path d="M28.2358 48.7699C28.9079 48.6738 29.4433 48.8254 29.8458 49.2285C29.916 49.3468 29.9677 49.491 30.0009 49.6685L30.012 49.7647C29.9973 49.8608 30.0009 49.9459 30.0231 50.0087L29.7498 51.9539C30.2262 51.8319 30.385 52.0501 30.2299 52.6085C29.964 52.9931 29.591 53.1891 29.1147 53.1965C28.8488 53.2224 28.6198 53.1225 28.4315 52.8932C27.3458 53.4923 26.6552 53.3111 26.3598 52.3459C26.345 51.6359 26.7069 51.0886 27.4455 50.704C26.9359 50.6633 26.7439 50.3712 26.8583 49.8238C27.1205 49.2691 27.5784 48.9178 28.2358 48.7699ZM28.4721 51.1736C28.1471 51.292 27.933 51.5102 27.8259 51.8282C27.8923 52.0907 28.0807 52.1092 28.3909 51.8874L28.4795 51.2328L28.4721 51.1736ZM28.4315 49.6463C28.4056 49.6537 28.3761 49.6611 28.3429 49.6722C28.3096 49.6833 28.2727 49.7018 28.2358 49.7277C28.2764 49.9755 28.2025 50.2084 28.0216 50.4303C28.0622 50.4229 28.0991 50.4118 28.1398 50.397C28.1804 50.3822 28.221 50.3601 28.2653 50.3342L28.6272 50.2084L28.6568 49.994C28.7158 49.8017 28.642 49.687 28.4315 49.6463Z" fill="#EE7664"/>
<path d="M30.8725 49.4245C30.8651 49.1841 30.9501 48.9807 31.1273 48.818H33.0217L33.1178 48.9067L33.1473 48.9474C33.2249 49.2729 33.0993 49.5132 32.7669 49.6611L33.0698 50.7854L33.0993 50.8445L33.7234 49.6427C33.4095 49.5317 33.3393 49.2987 33.5092 48.9474L33.6865 48.8217H35.123C35.1414 48.8402 35.1636 48.8661 35.1857 48.8957C35.2079 48.9252 35.2374 48.9548 35.267 48.9881L35.1968 49.4282C35.1008 49.5465 34.9679 49.6316 34.8054 49.6833L32.9479 53.0375C32.7596 53.2261 32.5491 53.2668 32.3127 53.1558C32.2684 53.1114 31.925 51.9687 31.2861 49.7314L31.2159 49.6427C31.0756 49.6316 30.9574 49.5613 30.8725 49.4245Z" fill="#EE7664"/>
<path d="M37.2204 48.7772C37.9553 48.707 38.476 48.9067 38.7825 49.3837C39.0964 49.8534 39.0779 50.1862 38.7345 50.3822L36.7034 51.5545V51.6802C37.1835 52.3385 37.7744 52.1906 38.4723 51.2402C38.5425 51.2143 38.6422 51.1995 38.764 51.1995C39.1407 51.3437 39.1887 51.6137 38.9118 52.013C38.247 53.1299 37.3201 53.5477 36.1274 53.2741L35.843 53.1188L35.7175 53.0226C35.2337 52.4827 35.0971 51.7838 35.2965 50.9295C35.4553 49.846 36.0941 49.1286 37.2204 48.7772ZM37.1244 49.7461C36.6887 49.9015 36.5299 50.1973 36.6444 50.6263L37.6414 50.0383C37.5454 49.8312 37.3718 49.7314 37.1244 49.7461Z" fill="#EE7664"/>
<path d="M41.1789 47.1354L41.5408 47.0281C41.814 46.9764 41.9839 47.0762 42.0504 47.3314L41.3561 52.3016C41.8066 52.3274 41.9617 52.5567 41.8251 52.9857C41.7993 53.0116 41.7697 53.0412 41.7402 53.0707C41.7106 53.1003 41.6774 53.1299 41.6368 53.1632H39.3989C39.3214 53.1114 39.2734 53.0412 39.2623 52.9487C39.2438 52.5493 39.4691 52.3348 39.9381 52.3016C39.9528 52.2572 39.9639 52.2054 39.9713 52.1536C39.9824 52.1019 39.9898 52.0464 39.9972 51.9872L40.5326 48.2115C40.0119 48.2522 39.8457 48.0192 40.0341 47.5163C40.0599 47.4719 40.1079 47.4275 40.1818 47.3905L40.6397 47.2722C40.732 47.2537 40.8096 47.2315 40.8724 47.213C40.9388 47.1945 40.9979 47.1724 41.057 47.1539L41.1789 47.1354Z" fill="#EE7664"/>
<path d="M44.0412 47.1354L44.4031 47.0281C44.6763 46.9764 44.8462 47.0762 44.9127 47.3314L44.2184 52.3016C44.6689 52.3274 44.824 52.5567 44.6874 52.9857C44.6616 53.0116 44.632 53.0412 44.6025 53.0707C44.5729 53.1003 44.5397 53.1299 44.4991 53.1632H42.2612C42.1837 53.1114 42.1357 53.0412 42.1246 52.9487C42.1061 52.5493 42.3314 52.3348 42.8004 52.3016C42.8151 52.2572 42.8262 52.2054 42.8336 52.1536C42.8447 52.1019 42.8521 52.0464 42.8595 51.9872L43.3949 48.2115C42.8742 48.2522 42.7081 48.0192 42.8964 47.5163C42.9222 47.4719 42.9702 47.4275 43.0441 47.3905L43.502 47.2722C43.5943 47.2537 43.6719 47.2315 43.7347 47.213C43.8011 47.1945 43.8602 47.1724 43.9193 47.1539L44.0412 47.1354Z" fill="#EE7664"/>
<path d="M47.195 48.7772C47.9299 48.707 48.4506 48.9067 48.7571 49.3837C49.071 49.8534 49.0525 50.1862 48.7091 50.3822L46.6781 51.5545V51.6802C47.1581 52.3385 47.749 52.1906 48.4469 51.2402C48.5171 51.2143 48.6168 51.1995 48.7387 51.1995C49.1153 51.3437 49.1633 51.6137 48.8864 52.013C48.2217 53.1299 47.2948 53.5477 46.102 53.2741L45.8176 53.1188L45.6921 53.0226C45.2083 52.4827 45.0717 51.7838 45.2711 50.9295C45.4262 49.846 46.0687 49.1286 47.195 48.7772ZM47.0953 49.7461C46.6596 49.9015 46.5008 50.1973 46.6153 50.6263L47.6123 50.0383C47.5163 49.8312 47.3428 49.7314 47.0953 49.7461Z" fill="#EE7664"/>
<path d="M51.0726 48.8365L51.1317 48.7958C51.3533 48.7551 51.5231 48.8217 51.6413 48.9918C52.3245 48.6146 52.7787 48.7144 53.0003 49.295L52.9301 49.8127C52.9117 49.8571 52.8747 49.9126 52.823 49.9791L52.8046 50.0198C52.4205 50.3379 52.0475 50.3453 51.6819 50.0383C51.6487 50.0716 51.6192 50.1086 51.5896 50.1567C51.5601 50.201 51.5268 50.2491 51.4862 50.3046L51.2425 52.0242C51.2351 52.0649 51.2314 52.1055 51.2277 52.1499C51.224 52.1943 51.2277 52.2461 51.2425 52.2978C51.5158 52.283 51.7115 52.3718 51.8297 52.5604C51.8481 52.712 51.8075 52.8784 51.7041 53.0596L51.5675 53.1558H49.3887L49.2705 53.1151C49.1265 52.8858 49.1708 52.6417 49.3961 52.3829C49.4219 52.3681 49.4515 52.3607 49.4847 52.3533C49.5179 52.3459 49.5549 52.3385 49.5918 52.3348L49.806 52.2756L50.1199 50.0346C49.7174 50.0753 49.5696 49.8793 49.6804 49.4466C49.7247 49.369 49.7986 49.295 49.8946 49.2321C49.9537 49.2174 50.0165 49.1989 50.0903 49.173C50.1605 49.1471 50.2417 49.1138 50.3341 49.0768L50.5593 49.0288C50.5999 48.9881 50.6516 48.9696 50.7144 48.9696L50.7735 48.9289L50.8621 48.9104L51.0726 48.8365Z" fill="#EE7664"/>
<path d="M3.08758 56.5284L2.51519 58.5032H2.22715L1.76924 56.913L1.29286 58.5032L1.00852 58.5069L0.45459 56.5284H0.72786L1.15992 58.2037L1.6363 56.5284H1.92434L2.37856 58.2L2.81062 56.5284H3.08758Z" fill="#3093A9"/>
<path d="M5.08157 56.9981C5.17759 57.0498 5.25144 57.1238 5.30314 57.2236C5.35854 57.3235 5.38439 57.4455 5.38439 57.5897V58.5069H5.12958V57.6267C5.12958 57.4714 5.09265 57.3531 5.0151 57.2717C4.93755 57.1904 4.83046 57.1497 4.69752 57.1497C4.56088 57.1497 4.45379 57.1904 4.37255 57.2754C4.29131 57.3605 4.25069 57.4825 4.25069 57.6452V58.5032H3.99219V56.4064H4.25069V57.1719C4.30239 57.0942 4.37255 57.0313 4.46118 56.987C4.54981 56.9426 4.64951 56.9204 4.76399 56.9204C4.88216 56.9241 4.98556 56.95 5.08157 56.9981Z" fill="#3093A9"/>
<path d="M7.8362 57.8265H6.59541C6.60649 57.9781 6.65819 58.1002 6.7542 58.1852C6.85022 58.2703 6.9647 58.3147 7.10133 58.3147C7.21212 58.3147 7.30444 58.2888 7.38199 58.237C7.45584 58.1852 7.50754 58.115 7.54078 58.0299H7.81774C7.77712 58.1778 7.69218 58.2999 7.57032 58.396C7.44846 58.4922 7.28967 58.5366 7.10502 58.5366C6.95731 58.5366 6.82806 58.5033 6.70989 58.4367C6.59172 58.3701 6.50309 58.2777 6.43662 58.1557C6.37015 58.0336 6.33691 57.8931 6.33691 57.7304C6.33691 57.5677 6.37015 57.4271 6.43293 57.3088C6.49571 57.1905 6.58803 57.0943 6.7025 57.0315C6.81698 56.9649 6.95362 56.9353 7.10133 56.9353C7.24904 56.9353 7.37829 56.9686 7.49277 57.0315C7.60725 57.0943 7.69218 57.1831 7.75496 57.2977C7.81774 57.4087 7.84728 57.5381 7.84728 57.6786C7.84359 57.7193 7.8399 57.7711 7.8362 57.8265ZM7.51124 57.3606C7.46692 57.2903 7.40784 57.2348 7.33398 57.1979C7.26012 57.1609 7.17519 57.1424 7.08656 57.1424C6.95731 57.1424 6.84653 57.1831 6.7542 57.2681C6.66188 57.3495 6.61018 57.4678 6.59541 57.6157H7.57401C7.57771 57.5159 7.55555 57.4345 7.51124 57.3606Z" fill="#3093A9"/>
<path d="M9.25814 56.9982C9.34308 56.9501 9.44278 56.9242 9.56465 56.9242V57.1905H9.49818C9.21014 57.1905 9.06612 57.3458 9.06612 57.6601V58.5033H8.80762V56.9501H9.06612V57.2015C9.11043 57.1165 9.17321 57.0462 9.25814 56.9982Z" fill="#3093A9"/>
<path d="M11.8914 57.8265H10.6506C10.6617 57.9781 10.7134 58.1002 10.8094 58.1852C10.9054 58.2703 11.0199 58.3147 11.1565 58.3147C11.2673 58.3147 11.3596 58.2888 11.4372 58.237C11.511 58.1852 11.5627 58.115 11.596 58.0299H11.8729C11.8323 58.1778 11.7474 58.2999 11.6255 58.396C11.5036 58.4922 11.3448 58.5366 11.1602 58.5366C11.0125 58.5366 10.8832 58.5033 10.7651 58.4367C10.6469 58.3701 10.5583 58.2777 10.4918 58.1557C10.4253 58.0336 10.3921 57.8931 10.3921 57.7304C10.3921 57.5677 10.4253 57.4271 10.4881 57.3088C10.5509 57.1905 10.6432 57.0943 10.7577 57.0315C10.8722 56.9649 11.0088 56.9353 11.1565 56.9353C11.3042 56.9353 11.4335 56.9686 11.5479 57.0315C11.6624 57.0943 11.7474 57.1831 11.8101 57.2977C11.8729 57.4087 11.9025 57.5381 11.9025 57.6786C11.9025 57.7193 11.8988 57.7711 11.8914 57.8265ZM11.5701 57.3606C11.5258 57.2903 11.4667 57.2348 11.3928 57.1979C11.319 57.1609 11.2341 57.1424 11.1454 57.1424C11.0162 57.1424 10.9054 57.1831 10.8131 57.2681C10.7208 57.3495 10.6691 57.4678 10.6543 57.6157H11.6329C11.6366 57.5159 11.6144 57.4345 11.5701 57.3606Z" fill="#3093A9"/>
<path d="M15.3589 56.5284V56.7392H14.5022V57.4049H15.2001V57.6157H14.5022V58.5069H14.2437V56.5321H15.3589V56.5284Z" fill="#3093A9"/>
<path d="M16.5734 58.433C16.4553 58.3664 16.363 58.2739 16.2965 58.1519C16.23 58.0299 16.1968 57.8894 16.1968 57.7266C16.1968 57.5676 16.23 57.4271 16.3002 57.3051C16.3703 57.183 16.4627 57.0906 16.5808 57.024C16.699 56.9574 16.8319 56.9279 16.9797 56.9279C17.1274 56.9279 17.2603 56.9611 17.3785 57.024C17.4967 57.0906 17.5927 57.183 17.6591 57.3014C17.7293 57.4234 17.7625 57.5639 17.7625 57.7229C17.7625 57.882 17.7256 58.0262 17.6554 58.1482C17.5853 58.2703 17.4893 58.3627 17.3674 58.4293C17.2455 58.4958 17.1126 58.5291 16.9649 58.5291C16.8246 58.5328 16.6916 58.4995 16.5734 58.433ZM17.2308 58.2407C17.312 58.1963 17.3785 58.1334 17.4265 58.0447C17.4782 57.9596 17.5003 57.8524 17.5003 57.7266C17.5003 57.6009 17.4745 57.4974 17.4265 57.4086C17.3785 57.3199 17.312 57.257 17.2345 57.2126C17.1569 57.1682 17.0683 57.1497 16.976 57.1497C16.88 57.1497 16.795 57.1719 16.7175 57.2126C16.6399 57.2533 16.5771 57.3199 16.5291 57.4086C16.4811 57.4974 16.459 57.6009 16.459 57.7266C16.459 57.8524 16.4811 57.9596 16.5291 58.0484C16.5771 58.1371 16.6362 58.2 16.7138 58.2444C16.7913 58.2887 16.8763 58.3072 16.9686 58.3072C17.0609 58.3035 17.1495 58.2813 17.2308 58.2407Z" fill="#3093A9"/>
<path d="M19.007 58.433C18.8889 58.3664 18.7965 58.2739 18.7301 58.1519C18.6636 58.0299 18.6304 57.8894 18.6304 57.7266C18.6304 57.5676 18.6636 57.4271 18.7338 57.3051C18.8039 57.183 18.8963 57.0906 19.0144 57.024C19.1326 56.9574 19.2655 56.9279 19.4133 56.9279C19.561 56.9279 19.6939 56.9611 19.8121 57.024C19.9302 57.0906 20.0263 57.183 20.0927 57.3014C20.1629 57.4234 20.1961 57.5639 20.1961 57.7229C20.1961 57.882 20.1592 58.0262 20.089 58.1482C20.0189 58.2703 19.9229 58.3627 19.801 58.4293C19.6791 58.4958 19.5462 58.5291 19.3985 58.5291C19.2582 58.5328 19.1252 58.4995 19.007 58.433ZM19.6644 58.2407C19.7456 58.1963 19.8121 58.1334 19.8601 58.0447C19.9118 57.9596 19.9339 57.8524 19.9339 57.7266C19.9339 57.6009 19.9081 57.4974 19.8601 57.4086C19.8121 57.3199 19.7456 57.257 19.6681 57.2126C19.5905 57.1682 19.5019 57.1497 19.4096 57.1497C19.3135 57.1497 19.2286 57.1719 19.1511 57.2126C19.0735 57.2533 19.0107 57.3199 18.9627 57.4086C18.9147 57.4974 18.8926 57.6009 18.8926 57.7266C18.8926 57.8524 18.9147 57.9596 18.9627 58.0484C19.0107 58.1371 19.0698 58.2 19.1474 58.2444C19.2249 58.2887 19.3099 58.3072 19.4022 58.3072C19.4945 58.3035 19.5831 58.2813 19.6644 58.2407Z" fill="#3093A9"/>
<path d="M21.16 57.305C21.2228 57.1866 21.3114 57.0905 21.4259 57.0276C21.5403 56.9647 21.6659 56.9278 21.8025 56.9278C21.9244 56.9278 22.0352 56.9573 22.1386 57.0128C22.242 57.0683 22.3232 57.1422 22.3749 57.231V56.41H22.6371V58.5068H22.3786V58.2147C22.3269 58.3071 22.2531 58.3848 22.1534 58.444C22.0536 58.5031 21.9355 58.5327 21.8025 58.5327C21.6659 58.5327 21.5403 58.4994 21.4259 58.4292C21.3114 58.3589 21.2264 58.2665 21.16 58.1444C21.0935 58.0224 21.064 57.8819 21.064 57.7265C21.064 57.5638 21.0972 57.427 21.16 57.305ZM22.3084 57.4196C22.2604 57.3346 22.1977 57.2643 22.1164 57.2199C22.0352 57.1755 21.9466 57.1496 21.8505 57.1496C21.7545 57.1496 21.6659 57.1718 21.5883 57.2162C21.5108 57.2606 21.4443 57.3272 21.4 57.4159C21.352 57.5047 21.3298 57.6045 21.3298 57.7228C21.3298 57.8412 21.352 57.9447 21.4 58.0335C21.448 58.1222 21.5108 58.1888 21.5883 58.2332C21.6659 58.2813 21.7545 58.3034 21.8505 58.3034C21.9466 58.3034 22.0352 58.2813 22.1164 58.2332C22.1977 58.1851 22.2604 58.1185 22.3084 58.0335C22.3565 57.9447 22.3786 57.8449 22.3786 57.7265C22.3786 57.6082 22.3565 57.5084 22.3084 57.4196Z" fill="#3093A9"/>
<path d="M27.2646 56.9981C27.3606 57.0499 27.4344 57.1238 27.4898 57.2237C27.5452 57.3235 27.5711 57.4456 27.5711 57.5898V58.5069H27.3163V57.6268C27.3163 57.4715 27.2793 57.3531 27.2018 57.2718C27.1242 57.1904 27.0208 57.1497 26.8916 57.1497C26.7586 57.1497 26.6515 57.1941 26.5703 57.2792C26.4928 57.3642 26.4521 57.49 26.4521 57.6527V58.5106H26.1973V57.6305C26.1973 57.4752 26.1604 57.3568 26.0828 57.2755C26.0053 57.1941 25.9019 57.1534 25.7727 57.1534C25.6397 57.1534 25.5326 57.1978 25.4514 57.2829C25.3738 57.3679 25.3332 57.4937 25.3332 57.6564V58.5143H25.0747V56.9611H25.3332V57.1867C25.3849 57.1054 25.4514 57.0425 25.54 56.9981C25.6286 56.9537 25.721 56.9315 25.8244 56.9315C25.9536 56.9315 26.0681 56.9611 26.1715 57.0203C26.2712 57.0795 26.345 57.1645 26.3967 57.2792C26.4411 57.1682 26.5112 57.0832 26.6109 57.024C26.7106 56.9648 26.8214 56.9315 26.9433 56.9315C27.0651 56.9241 27.1722 56.95 27.2646 56.9981Z" fill="#3093A9"/>
<path d="M30.0227 57.8265H28.7819C28.793 57.9781 28.8447 58.1002 28.9407 58.1852C29.0367 58.2703 29.1512 58.3147 29.2879 58.3147C29.3986 58.3147 29.491 58.2888 29.5685 58.237C29.6424 58.1852 29.6941 58.115 29.7273 58.0299H30.0043C29.9636 58.1778 29.8787 58.2999 29.7568 58.396C29.635 58.4922 29.4762 58.5366 29.2915 58.5366C29.1438 58.5366 29.0146 58.5033 28.8964 58.4367C28.7782 58.3701 28.6896 58.2777 28.6231 58.1557C28.5567 58.0336 28.5234 57.8931 28.5234 57.7304C28.5234 57.5677 28.5567 57.4271 28.6195 57.3088C28.6822 57.1905 28.7746 57.0943 28.889 57.0315C29.0035 56.9649 29.1401 56.9353 29.2879 56.9353C29.4356 56.9353 29.5648 56.9686 29.6793 57.0315C29.7938 57.0943 29.8787 57.1831 29.9415 57.2977C30.0043 57.4087 30.0338 57.5381 30.0338 57.6786C30.0301 57.7193 30.0301 57.7711 30.0227 57.8265ZM29.7015 57.3606C29.6571 57.2903 29.5981 57.2348 29.5242 57.1979C29.4503 57.1609 29.3654 57.1424 29.2768 57.1424C29.1475 57.1424 29.0367 57.1831 28.9444 57.2681C28.8521 57.3495 28.8004 57.4678 28.7856 57.6157H29.7642C29.7642 57.5159 29.7421 57.4345 29.7015 57.3606Z" fill="#3093A9"/>
<path d="M32.4011 57.8265H31.1604C31.1714 57.9781 31.2231 58.1002 31.3191 58.1852C31.4152 58.2703 31.5296 58.3147 31.6663 58.3147C31.7771 58.3147 31.8694 58.2888 31.9469 58.237C32.0208 58.1852 32.0725 58.115 32.1057 58.0299H32.3827C32.3421 58.1778 32.2571 58.2999 32.1353 58.396C32.0134 58.4922 31.8546 58.5366 31.67 58.5366C31.5223 58.5366 31.393 58.5033 31.2748 58.4367C31.1567 58.3701 31.068 58.2777 31.0016 58.1557C30.9351 58.0336 30.9019 57.8931 30.9019 57.7304C30.9019 57.5677 30.9351 57.4271 30.9979 57.3088C31.0606 57.1905 31.153 57.0943 31.2674 57.0315C31.3819 56.9649 31.5186 56.9353 31.6663 56.9353C31.814 56.9353 31.9432 56.9686 32.0577 57.0315C32.1722 57.0943 32.2571 57.1831 32.3199 57.2977C32.3827 57.4087 32.4122 57.5381 32.4122 57.6786C32.4085 57.7193 32.4085 57.7711 32.4011 57.8265ZM32.0799 57.3606C32.0356 57.2903 31.9765 57.2348 31.9026 57.1979C31.8288 57.1609 31.7438 57.1424 31.6552 57.1424C31.5259 57.1424 31.4152 57.1831 31.3228 57.2681C31.2305 57.3495 31.1788 57.4678 31.164 57.6157H32.1426C32.1426 57.5159 32.1205 57.4345 32.0799 57.3606Z" fill="#3093A9"/>
<path d="M33.6864 57.1645V58.0816C33.6864 58.1592 33.7012 58.211 33.7344 58.2406C33.7677 58.2702 33.8231 58.2887 33.9006 58.2887H34.0889V58.5069H33.8563C33.7123 58.5069 33.6052 58.4736 33.535 58.407C33.4649 58.3404 33.4279 58.2332 33.4279 58.0816V57.1645H33.2285V56.95H33.4279V56.558H33.6864V56.95H34.0926V57.1645H33.6864Z" fill="#3093A9"/>
<path d="M35.2561 58.4699C35.16 58.4292 35.0862 58.3738 35.0308 58.2998C34.9754 58.2259 34.9459 58.1445 34.9385 58.0484H35.2044C35.2117 58.126 35.2487 58.1889 35.3115 58.2369C35.3779 58.285 35.4629 58.3109 35.5663 58.3109C35.666 58.3109 35.7435 58.2887 35.7989 58.2443C35.8543 58.2 35.8838 58.1445 35.8838 58.0779C35.8838 58.0114 35.8543 57.9596 35.7915 57.9263C35.7324 57.893 35.6364 57.8598 35.5109 57.8302C35.3964 57.8006 35.3004 57.771 35.2302 57.7377C35.1564 57.7081 35.0936 57.6601 35.0419 57.5972C34.9902 57.5343 34.9643 57.4567 34.9643 57.3531C34.9643 57.2755 34.9865 57.2015 35.0345 57.1349C35.0825 57.0684 35.149 57.0166 35.2339 56.9759C35.3188 56.9389 35.4185 56.9167 35.533 56.9167C35.7029 56.9167 35.8432 56.9611 35.9503 57.0462C36.0574 57.1349 36.1128 57.2533 36.1202 57.4049H35.8617C35.8543 57.3235 35.8248 57.257 35.7657 57.2089C35.7066 57.1608 35.6253 57.1349 35.5256 57.1349C35.4333 57.1349 35.3595 57.1534 35.3041 57.1941C35.2487 57.2348 35.2228 57.2866 35.2228 57.3494C35.2228 57.4012 35.2376 57.4419 35.2708 57.4752C35.3041 57.5084 35.3447 57.5343 35.3964 57.5528C35.4481 57.5713 35.5146 57.5935 35.6032 57.6194C35.714 57.649 35.8063 57.6785 35.8765 57.7081C35.9466 57.7377 36.0057 57.7821 36.0574 57.8413C36.1091 57.9004 36.135 57.9781 36.135 58.0705C36.135 58.1556 36.1128 58.2333 36.0648 58.2998C36.0168 58.3664 35.9503 58.4219 35.8654 58.4588C35.7804 58.4958 35.6807 58.518 35.57 58.518C35.4555 58.5328 35.3484 58.5106 35.2561 58.4699Z" fill="#3093A9"/>
<path d="M38.5384 56.9981C38.6271 56.8427 38.7452 56.7244 38.8929 56.6357C39.0443 56.5469 39.2105 56.5062 39.3915 56.5062C39.6057 56.5062 39.794 56.558 39.9565 56.6615C40.1153 56.7651 40.2334 56.913 40.3073 57.1053H39.9971C39.9417 56.987 39.8642 56.8945 39.7608 56.8317C39.6574 56.7688 39.5355 56.7355 39.3915 56.7355C39.2548 56.7355 39.1293 56.7688 39.0222 56.8317C38.9114 56.8945 38.8265 56.987 38.7637 57.1053C38.7009 57.2236 38.6714 57.3605 38.6714 57.5195C38.6714 57.6748 38.7009 57.8153 38.7637 57.9337C38.8265 58.052 38.9114 58.1445 39.0222 58.2073C39.133 58.2702 39.2548 58.3035 39.3915 58.3035C39.5355 58.3035 39.6574 58.2702 39.7608 58.2073C39.8642 58.1445 39.9417 58.052 39.9971 57.9337H40.3073C40.2334 58.1223 40.1153 58.2702 39.9565 58.37C39.7977 58.4736 39.6093 58.5254 39.3915 58.5254C39.2068 58.5254 39.0407 58.481 38.8929 58.3959C38.7452 58.3109 38.6234 58.1888 38.5384 58.0372C38.4535 57.8856 38.4092 57.7118 38.4092 57.5195C38.4092 57.3272 38.4535 57.1497 38.5384 56.9981Z" fill="#3093A9"/>
<path d="M42.6898 56.9538V58.507H42.4313V58.2777C42.3833 58.3553 42.3132 58.4182 42.2245 58.4626C42.1359 58.507 42.0399 58.5291 41.9328 58.5291C41.8109 58.5291 41.7038 58.5033 41.6078 58.4552C41.5118 58.4034 41.4343 58.3294 41.3789 58.2296C41.3235 58.1298 41.2939 58.0077 41.2939 57.8635V56.9538H41.5488V57.8302C41.5488 57.9818 41.5857 58.1002 41.6632 58.1815C41.7408 58.2629 41.8479 58.3036 41.9808 58.3036C42.1174 58.3036 42.2282 58.2592 42.3058 58.1741C42.3833 58.0891 42.424 57.967 42.424 57.8043V56.9501H42.6898V56.9538Z" fill="#3093A9"/>
<path d="M44.008 56.4064V58.5032H43.7495V56.4064H44.008Z" fill="#3093A9"/>
<path d="M45.3817 57.1645V58.0816C45.3817 58.1592 45.3965 58.211 45.4297 58.2406C45.463 58.2702 45.5184 58.2887 45.5959 58.2887H45.7843V58.5069H45.5516C45.4076 58.5069 45.3005 58.4736 45.2303 58.407C45.1602 58.3404 45.1232 58.2332 45.1232 58.0816V57.1645H44.9238V56.95H45.1232V56.558H45.3817V56.95H45.788V57.1645H45.3817Z" fill="#3093A9"/>
<path d="M48.0961 56.9538V58.507H47.8376V58.2777C47.7896 58.3553 47.7194 58.4182 47.6308 58.4626C47.5422 58.507 47.4461 58.5291 47.3391 58.5291C47.2172 58.5291 47.1101 58.5033 47.0141 58.4552C46.9181 58.4034 46.8405 58.3294 46.7851 58.2296C46.7297 58.1298 46.7002 58.0077 46.7002 57.8635V56.9538H46.955V57.8302C46.955 57.9818 46.9919 58.1002 47.0695 58.1815C47.147 58.2629 47.2541 58.3036 47.3871 58.3036C47.5237 58.3036 47.6345 58.2592 47.712 58.1741C47.7896 58.0891 47.8302 57.967 47.8302 57.8043V56.9501H48.0961V56.9538Z" fill="#3093A9"/>
<path d="M49.6063 56.9982C49.6912 56.9501 49.7909 56.9242 49.9128 56.9242V57.1905H49.8463C49.5583 57.1905 49.4143 57.3458 49.4143 57.6601V58.5033H49.1558V56.9501H49.4143V57.2015C49.4586 57.1165 49.525 57.0462 49.6063 56.9982Z" fill="#3093A9"/>
<path d="M52.2429 57.8265H51.0021C51.0132 57.9781 51.0649 58.1002 51.1609 58.1852C51.257 58.2703 51.3714 58.3147 51.5081 58.3147C51.6189 58.3147 51.7112 58.2888 51.7887 58.237C51.8626 58.1852 51.9143 58.115 51.9475 58.0299H52.2245C52.1839 58.1778 52.0989 58.2999 51.9771 58.396C51.8552 58.4922 51.6964 58.5366 51.5118 58.5366C51.364 58.5366 51.2348 58.5033 51.1166 58.4367C50.9985 58.3701 50.9098 58.2777 50.8434 58.1557C50.7769 58.0336 50.7437 57.8931 50.7437 57.7304C50.7437 57.5677 50.7769 57.4271 50.8397 57.3088C50.9024 57.1905 50.9948 57.0943 51.1092 57.0315C51.2237 56.9649 51.3604 56.9353 51.5081 56.9353C51.6558 56.9353 51.785 56.9686 51.8995 57.0315C52.014 57.0943 52.0989 57.1831 52.1617 57.2977C52.2245 57.4087 52.254 57.5381 52.254 57.6786C52.2503 57.7193 52.2466 57.7711 52.2429 57.8265ZM51.918 57.3606C51.8737 57.2903 51.8146 57.2348 51.7407 57.1979C51.6669 57.1609 51.5819 57.1424 51.4933 57.1424C51.364 57.1424 51.2533 57.1831 51.1609 57.2681C51.0686 57.3495 51.0169 57.4678 51.0021 57.6157H51.9807C51.9844 57.5159 51.9623 57.4345 51.918 57.3606Z" fill="#3093A9"/>
<path d="M47.3503 20.2431C47.3503 31.4223 38.2991 40.4863 27.1357 40.4863C26.2974 40.4863 24.6652 40.3383 24.6652 40.3383L21.1865 43.8589C21.1865 43.8589 19.7094 39.1032 18.8416 38.7112C11.8178 35.542 6.9248 28.4676 6.9248 20.2468C6.9248 9.06392 15.9759 0 27.1394 0C38.3028 0 47.3503 9.06392 47.3503 20.2431Z" fill="#3093A9"/>
<path d="M6.92452 18.0761C6.92452 18.0761 8.46812 15.3543 15.6544 13.1762C15.6544 13.1762 20.0525 11.7857 21.5851 11.6267C21.5851 11.6267 21.2416 6.8562 28.6864 5.78377C28.6864 5.78377 35.2264 4.85925 36.9288 8.58689C36.9288 8.58689 37.7634 10.8057 31.9509 14.0378C31.9509 14.0378 25.7395 17.906 21.9544 13.1244C21.9544 13.1244 16.2785 15.1879 12.2274 18.775C12.2274 18.775 7.3972 22.4583 8.02129 26.8257C8.02129 26.8331 6.52939 23.5862 6.92452 18.0761Z" fill="white"/>
<path d="M45.3002 11.353C45.3002 11.353 46.3637 14.7552 45.3002 17.1479C44.2367 19.5405 41.2676 22.7504 36.9655 23.4567C33.4351 24.0336 33.328 21.7261 30.9203 22.499C28.5126 23.2718 21.57 25.5942 21.57 25.5942C21.57 25.5942 21.0087 26.2784 21.8248 26.4152L28.8043 24.4959C28.8043 24.4959 29.6204 24.3554 29.7755 24.7548C29.9306 25.1579 29.133 25.3612 29.133 25.3612L22.2421 27.41C22.2421 27.41 21.4962 28.2679 22.604 28.4935L29.1773 26.6038C29.1773 26.6038 29.8161 26.3079 30.0709 26.6667C30.3294 27.0254 30.1079 27.2436 29.6057 27.3878C29.1034 27.532 22.6779 29.5179 22.6779 29.5179C22.6779 29.5179 22.1757 30.4017 23.2724 30.4017L30.1817 28.4676C30.1817 28.4676 30.6064 28.3382 30.7061 28.7672C30.8058 29.1961 30.2371 29.2146 30.2371 29.2146L23.6343 31.1783C23.6343 31.1783 23.1617 31.5518 23.2835 31.8624C23.4091 32.1731 23.7119 32.358 24.4357 32.1768C25.1558 31.9992 31.0717 30.4498 31.0717 30.4498C31.0717 30.4498 33.6382 30.0171 34.3399 29.2331C35.0415 28.4491 36.4448 26.4226 38.1989 25.6127C39.953 24.8028 45.3039 23.1276 46.7441 21.4968C47.2648 20.9088 47.4236 20.1766 47.3534 18.4052C47.2796 16.6375 46.5188 13.827 45.3002 11.353Z" fill="white"/>
</svg>
