<svg width="30" height="32" viewBox="0 0 30 32" fill="none" xmlns="http://www.w3.org/2000/svg">
<path d="M19.7408 31.2791H19.5506C13.0526 31.2791 9.92072 28.6141 9.37923 22.6446C9.32069 22.0202 9.75974 21.4568 10.3744 21.3959C10.9598 21.335 11.5159 21.807 11.5745 22.4314C11.9989 27.2131 14.1649 28.9948 19.5652 28.9948H19.7555C25.7119 28.9948 27.8193 26.802 27.8193 20.604V10.6751C27.8193 4.47714 25.7119 2.28425 19.7555 2.28425H19.5652C14.1356 2.28425 11.9696 4.09643 11.5745 8.96951C11.5013 9.59387 10.9891 10.0659 10.3744 10.005C9.75974 9.95935 9.32069 9.3959 9.3646 8.77154C9.86219 2.71065 13.0087 0 19.5506 0H19.7408C26.9266 0 30 3.19796 30 10.6751V20.604C30 28.0811 26.9266 31.2791 19.7408 31.2791Z" fill="#BB9B8E"/>
<path d="M19.387 16.7817H2.73239C2.13236 16.7817 1.63477 16.2639 1.63477 15.6396C1.63477 15.0152 2.13236 14.4974 2.73239 14.4974H19.387C19.987 14.4974 20.4846 15.0152 20.4846 15.6396C20.4846 16.2639 19.987 16.7817 19.387 16.7817Z" fill="#BB9B8E"/>
<path d="M5.99669 21.8832C5.71863 21.8832 5.44056 21.7767 5.22104 21.5482L0.318311 16.4467C-0.106104 16.0051 -0.106104 15.2741 0.318311 14.8325L5.22104 9.731C5.64545 9.28937 6.34793 9.28937 6.77235 9.731C7.19676 10.1726 7.19676 10.9036 6.77235 11.3452L2.64528 15.6396L6.77235 19.934C7.19676 20.3756 7.19676 21.1066 6.77235 21.5482C6.56746 21.7767 6.27476 21.8832 5.99669 21.8832Z" fill="#BB9B8E"/>
</svg>
