<svg width="53" height="59" viewBox="0 0 53 59" fill="none" xmlns="http://www.w3.org/2000/svg">
<path d="M0.0779832 48.2892C0.447267 47.4682 1.10828 47.0392 2.04996 47.0096H5.93851L6.09361 47.0281C6.17116 47.0688 6.24132 47.1428 6.30041 47.2537L6.10469 48.8106C6.0973 48.8254 6.08992 48.8365 6.07884 48.8513C6.06776 48.8661 6.06038 48.8809 6.05299 48.8993C5.90158 49.0029 5.73541 49.0584 5.54338 49.0658L5.24057 51.2661C5.21472 51.3105 5.18517 51.3549 5.14824 51.3918C5.11132 51.4325 5.07439 51.4732 5.03746 51.5176C4.8602 51.5693 4.67556 51.5693 4.47984 51.5176C4.42076 51.4584 4.38383 51.3955 4.36167 51.3327C4.36906 51.1884 4.35059 51.0183 4.31366 50.8223L4.30259 50.7817C4.09948 50.7373 3.85575 50.7151 3.5714 50.7225H3.17627L3.10611 50.741L2.87346 52.5493C3.27229 52.5752 3.49016 52.7046 3.52709 52.9413C3.50863 53.3703 3.29814 53.5663 2.903 53.5293H0.676222C0.598673 53.4627 0.546973 53.3851 0.521123 53.2963C0.521123 52.8156 0.753772 52.5789 1.21538 52.5937L1.304 52.5345L1.33355 52.4088L1.92809 48.193L1.90963 48.0673C1.72868 48.0414 1.52188 48.0784 1.29293 48.1745C1.49972 48.6627 1.36309 49.0916 0.871943 49.4541C0.114912 49.6464 -0.14728 49.2618 0.0779832 48.2892ZM4.71988 48.1228H3.49755C3.4717 48.1893 3.45323 48.2596 3.44216 48.3372C3.43108 48.4149 3.42 48.5037 3.40892 48.5998L3.28336 49.491L3.29444 49.5798H3.91853C4.02193 49.5946 4.12902 49.5872 4.23981 49.5613H4.35798L4.44661 49.5428C4.56847 49.3801 4.6571 49.1767 4.7088 48.9363C4.85282 48.7995 5.02638 48.7292 5.23687 48.7292C5.23687 48.5258 5.19625 48.3557 5.11132 48.2115C5.02638 48.1671 4.9156 48.1412 4.77896 48.1412L4.71988 48.1228Z" fill="#EE7664"/>
<path d="M8.06936 48.818C9.46895 48.6664 10.2297 49.247 10.3442 50.5598C10.3183 51.9539 9.64251 52.8452 8.31309 53.2298C6.95043 53.4184 6.20079 52.8341 6.05677 51.4806C6.0383 50.116 6.70671 49.2285 8.06936 48.818ZM8.40172 49.7721C8.35002 49.7573 8.28724 49.7425 8.21708 49.7388C8.10629 49.7721 8.00289 49.8239 7.90319 49.8941C7.61514 50.2787 7.50067 50.7077 7.55237 51.1847C7.5339 51.5545 7.62253 51.9022 7.82564 52.2202C7.92165 52.2905 8.04351 52.3311 8.18753 52.3385C8.27986 52.3052 8.37587 52.2535 8.47927 52.1832C8.72669 51.843 8.85594 51.4621 8.87071 51.0405C8.92979 50.5857 8.8264 50.1826 8.55682 49.8386C8.50512 49.8091 8.45342 49.7869 8.40172 49.7721Z" fill="#EE7664"/>
<path d="M12.7004 48.818C14.1 48.6664 14.8607 49.247 14.9752 50.5598C14.9493 51.9539 14.2735 52.8452 12.9441 53.2298C11.5815 53.4184 10.8318 52.8341 10.6878 51.4806C10.6656 50.116 11.3377 49.2285 12.7004 48.818ZM13.029 49.7721C12.9773 49.7573 12.9146 49.7425 12.8444 49.7388C12.7336 49.7721 12.6302 49.8239 12.5305 49.8941C12.2425 50.2787 12.128 50.7077 12.1797 51.1847C12.1612 51.5545 12.2499 51.9022 12.453 52.2202C12.549 52.2905 12.6708 52.3311 12.8149 52.3385C12.9072 52.3052 13.0032 52.2535 13.1066 52.1832C13.354 51.843 13.4833 51.4621 13.498 51.0405C13.5571 50.5857 13.4537 50.1826 13.1841 49.8386C13.1361 49.8091 13.0844 49.7869 13.029 49.7721Z" fill="#EE7664"/>
<path d="M19.2217 47.0281C19.4433 46.9874 19.6205 47.0576 19.7498 47.2351L19.0961 51.9871C19.5134 51.9871 19.6574 52.1979 19.5245 52.6232C19.4987 52.6565 19.4691 52.6861 19.4433 52.7157C19.4137 52.7452 19.3842 52.7748 19.3509 52.8081L19.0297 52.9264L18.9521 52.9449L18.6308 53.0633C18.5976 53.0707 18.5644 53.0781 18.5274 53.0892C18.4905 53.1003 18.4499 53.1187 18.4056 53.1446L18.1914 53.1927L18.1138 53.2334C18.0621 53.2482 18.0104 53.2556 17.9587 53.2593C17.907 53.263 17.848 53.2593 17.7815 53.2556C17.7482 53.2371 17.7187 53.2149 17.6929 53.1927C17.667 53.1705 17.6375 53.1409 17.6042 53.1077C16.633 53.4922 15.9018 53.2371 15.407 52.3459C15.1337 51.4657 15.3257 50.5782 15.9831 49.687C16.5481 48.988 17.2719 48.7107 18.1508 48.8475L18.2394 48.2225C17.9144 48.2558 17.7519 48.1153 17.7519 47.8009C17.7704 47.6567 17.8295 47.5384 17.9292 47.4385C18.0511 47.372 18.2246 47.3202 18.4462 47.2832L18.5348 47.2425H18.5939L18.7785 47.1834C18.8229 47.1575 18.893 47.139 18.9853 47.1242L19.2217 47.0281ZM17.4565 49.735C16.9617 50.0161 16.7216 50.4968 16.7327 51.181C16.6921 51.7431 16.91 52.0537 17.379 52.1203C17.4824 52.1055 17.5858 52.0611 17.6818 51.9834C17.7076 51.9317 17.7261 51.8688 17.7372 51.7911C17.7482 51.7172 17.7593 51.6321 17.7704 51.5434L17.955 50.1751V50.0198C17.8627 49.8312 17.6965 49.735 17.4565 49.735Z" fill="#EE7664"/>
<path d="M21.4336 48.0747C21.489 48.0155 21.5592 47.96 21.6441 47.9083H21.6847C22.1279 47.8824 22.2571 48.2152 22.0762 48.9067C22.5304 48.8735 22.7815 48.977 22.8295 49.21C22.8369 49.7462 22.5378 49.9792 21.9321 49.9126L21.6404 52.0353V52.1721H21.7364C21.9248 51.9428 22.1426 51.88 22.39 51.9761C22.5525 52.0945 22.6042 52.2683 22.5451 52.4938C22.1685 53.0596 21.6478 53.3296 20.9831 53.2963C20.6655 53.2704 20.4255 53.0892 20.2704 52.7601C20.2704 52.6935 20.2556 52.627 20.2297 52.553L20.2113 52.3977L20.5621 49.9422C20.3664 49.9089 20.226 49.8128 20.1411 49.65L20.1891 49.3061C20.2593 49.21 20.3442 49.1286 20.4439 49.0621L20.5806 48.9844L21.0606 48.5258L21.1308 48.4482L21.201 48.3705L21.2711 48.2929L21.2896 48.2633C21.3302 48.193 21.3782 48.1338 21.4336 48.0747Z" fill="#EE7664"/>
<path d="M24.5946 48.8365L24.6537 48.7958C24.8752 48.7551 25.0451 48.8217 25.1633 48.9918C25.8465 48.6146 26.3007 48.7144 26.5223 49.295L26.4521 49.8127C26.4336 49.8571 26.3967 49.9126 26.345 49.9791L26.3265 50.0198C25.9425 50.3379 25.5695 50.3453 25.2039 50.0383C25.1707 50.0716 25.1411 50.1086 25.1116 50.1567C25.082 50.201 25.0488 50.2491 25.0082 50.3046L24.7645 52.0242C24.7571 52.0649 24.7534 52.1055 24.7497 52.1499C24.746 52.1943 24.7497 52.2461 24.7645 52.2978C25.0377 52.283 25.2335 52.3718 25.3516 52.5604C25.3701 52.712 25.3295 52.8784 25.2261 53.0596L25.0894 53.1558H22.9107L22.7925 53.1151C22.6485 52.8858 22.6928 52.6417 22.918 52.3829C22.9439 52.3681 22.9734 52.3607 23.0067 52.3533C23.0399 52.3459 23.0768 52.3385 23.1138 52.3348L23.328 52.2756L23.6418 50.0346C23.2393 50.0753 23.0916 49.8793 23.2024 49.4466C23.2467 49.369 23.3206 49.295 23.4166 49.2321C23.4757 49.2174 23.5384 49.1989 23.6123 49.173C23.6825 49.1471 23.7637 49.1138 23.856 49.0768L24.0813 49.0288C24.1219 48.9881 24.1736 48.9696 24.2364 48.9696L24.2955 48.9289L24.3841 48.9104L24.5946 48.8365Z" fill="#EE7664"/>
<path d="M28.2358 48.7699C28.9079 48.6738 29.4433 48.8254 29.8458 49.2285C29.916 49.3468 29.9677 49.491 30.0009 49.6685L30.012 49.7647C29.9973 49.8608 30.0009 49.9459 30.0231 50.0087L29.7498 51.9539C30.2262 51.8319 30.385 52.0501 30.2299 52.6085C29.964 52.9931 29.591 53.1891 29.1147 53.1965C28.8488 53.2224 28.6198 53.1225 28.4315 52.8932C27.3458 53.4923 26.6552 53.3111 26.3598 52.3459C26.345 51.6359 26.7069 51.0886 27.4455 50.704C26.9359 50.6633 26.7439 50.3712 26.8583 49.8238C27.1205 49.2691 27.5784 48.9178 28.2358 48.7699ZM28.4721 51.1736C28.1471 51.292 27.933 51.5102 27.8259 51.8282C27.8923 52.0907 28.0807 52.1092 28.3909 51.8874L28.4795 51.2328L28.4721 51.1736ZM28.4315 49.6463C28.4056 49.6537 28.3761 49.6611 28.3429 49.6722C28.3096 49.6833 28.2727 49.7018 28.2358 49.7277C28.2764 49.9755 28.2025 50.2084 28.0216 50.4303C28.0622 50.4229 28.0991 50.4118 28.1398 50.397C28.1804 50.3822 28.221 50.3601 28.2653 50.3342L28.6272 50.2084L28.6568 49.994C28.7158 49.8017 28.642 49.687 28.4315 49.6463Z" fill="#EE7664"/>
<path d="M30.8723 49.4245C30.8649 49.1841 30.9498 48.9807 31.1271 48.818H33.0215L33.1175 48.9067L33.1471 48.9474C33.2246 49.2729 33.0991 49.5132 32.7667 49.6611L33.0695 50.7854L33.099 50.8445L33.7231 49.6427C33.4092 49.5317 33.3391 49.2987 33.509 48.9474L33.6862 48.8217H35.1227C35.1412 48.8402 35.1633 48.8661 35.1855 48.8957C35.2077 48.9252 35.2372 48.9548 35.2667 48.9881L35.1966 49.4282C35.1006 49.5465 34.9676 49.6316 34.8051 49.6833L32.9476 53.0375C32.7593 53.2261 32.5488 53.2668 32.3125 53.1558C32.2682 53.1114 31.9247 51.9687 31.2859 49.7314L31.2157 49.6427C31.0754 49.6316 30.9572 49.5613 30.8723 49.4245Z" fill="#EE7664"/>
<path d="M37.2204 48.7772C37.9553 48.707 38.476 48.9067 38.7825 49.3837C39.0964 49.8534 39.0779 50.1862 38.7345 50.3822L36.7034 51.5545V51.6802C37.1835 52.3385 37.7744 52.1906 38.4723 51.2402C38.5425 51.2143 38.6422 51.1995 38.764 51.1995C39.1407 51.3437 39.1887 51.6137 38.9118 52.013C38.247 53.1299 37.3201 53.5477 36.1274 53.2741L35.843 53.1188L35.7175 53.0226C35.2337 52.4827 35.0971 51.7838 35.2965 50.9295C35.4553 49.846 36.0941 49.1286 37.2204 48.7772ZM37.1244 49.7461C36.6887 49.9015 36.5299 50.1973 36.6444 50.6263L37.6414 50.0383C37.5454 49.8312 37.3718 49.7314 37.1244 49.7461Z" fill="#EE7664"/>
<path d="M41.1791 47.1354L41.541 47.0281C41.8143 46.9764 41.9841 47.0762 42.0506 47.3314L41.3564 52.3016C41.8069 52.3274 41.962 52.5567 41.8254 52.9857C41.7995 53.0116 41.77 53.0412 41.7404 53.0707C41.7109 53.1003 41.6776 53.1299 41.637 53.1632H39.3992C39.3216 53.1114 39.2736 53.0412 39.2625 52.9487C39.2441 52.5493 39.4693 52.3348 39.9383 52.3016C39.9531 52.2572 39.9642 52.2054 39.9715 52.1536C39.9826 52.1019 39.99 52.0464 39.9974 51.9872L40.5329 48.2115C40.0122 48.2522 39.846 48.0192 40.0343 47.5163C40.0602 47.4719 40.1082 47.4275 40.182 47.3905L40.64 47.2722C40.7323 47.2537 40.8098 47.2315 40.8726 47.213C40.9391 47.1945 40.9982 47.1724 41.0572 47.1539L41.1791 47.1354Z" fill="#EE7664"/>
<path d="M44.0414 47.1354L44.4033 47.0281C44.6766 46.9764 44.8464 47.0762 44.9129 47.3314L44.2187 52.3016C44.6692 52.3274 44.8243 52.5567 44.6877 52.9857C44.6618 53.0116 44.6323 53.0412 44.6027 53.0707C44.5732 53.1003 44.5399 53.1299 44.4993 53.1632H42.2615C42.1839 53.1114 42.1359 53.0412 42.1248 52.9487C42.1064 52.5493 42.3316 52.3348 42.8006 52.3016C42.8154 52.2572 42.8265 52.2054 42.8339 52.1536C42.8449 52.1019 42.8523 52.0464 42.8597 51.9872L43.3952 48.2115C42.8745 48.2522 42.7083 48.0192 42.8966 47.5163C42.9225 47.4719 42.9705 47.4275 43.0443 47.3905L43.5023 47.2722C43.5946 47.2537 43.6721 47.2315 43.7349 47.213C43.8014 47.1945 43.8605 47.1724 43.9195 47.1539L44.0414 47.1354Z" fill="#EE7664"/>
<path d="M47.195 48.7772C47.9299 48.707 48.4506 48.9067 48.7571 49.3837C49.071 49.8534 49.0525 50.1862 48.7091 50.3822L46.6781 51.5545V51.6802C47.1581 52.3385 47.749 52.1906 48.4469 51.2402C48.5171 51.2143 48.6168 51.1995 48.7387 51.1995C49.1153 51.3437 49.1633 51.6137 48.8864 52.013C48.2217 53.1299 47.2948 53.5477 46.102 53.2741L45.8176 53.1188L45.6921 53.0226C45.2083 52.4827 45.0717 51.7838 45.2711 50.9295C45.4262 49.846 46.0687 49.1286 47.195 48.7772ZM47.0953 49.7461C46.6596 49.9015 46.5008 50.1973 46.6153 50.6263L47.6123 50.0383C47.5163 49.8312 47.3428 49.7314 47.0953 49.7461Z" fill="#EE7664"/>
<path d="M51.0724 48.8365L51.1315 48.7958C51.353 48.7551 51.5229 48.8217 51.6411 48.9918C52.3242 48.6146 52.7785 48.7144 53 49.295L52.9299 49.8127C52.9114 49.8571 52.8745 49.9126 52.8228 49.9791L52.8043 50.0198C52.4203 50.3379 52.0473 50.3453 51.6817 50.0383C51.6485 50.0716 51.6189 50.1086 51.5894 50.1567C51.5598 50.201 51.5266 50.2491 51.486 50.3046L51.2422 52.0242C51.2349 52.0649 51.2312 52.1055 51.2275 52.1499C51.2238 52.1943 51.2275 52.2461 51.2422 52.2978C51.5155 52.283 51.7112 52.3718 51.8294 52.5604C51.8479 52.712 51.8073 52.8784 51.7039 53.0596L51.5672 53.1558H49.3884L49.2703 53.1151C49.1263 52.8858 49.1706 52.6417 49.3958 52.3829C49.4217 52.3681 49.4512 52.3607 49.4845 52.3533C49.5177 52.3459 49.5546 52.3385 49.5915 52.3348L49.8057 52.2756L50.1196 50.0346C49.7171 50.0753 49.5694 49.8793 49.6802 49.4466C49.7245 49.369 49.7984 49.295 49.8944 49.2321C49.9534 49.2174 50.0162 49.1989 50.0901 49.173C50.1602 49.1471 50.2415 49.1138 50.3338 49.0768L50.5591 49.0288C50.5997 48.9881 50.6514 48.9696 50.7142 48.9696L50.7733 48.9289L50.8619 48.9104L51.0724 48.8365Z" fill="#EE7664"/>
<path d="M3.08758 56.5284L2.51519 58.5032H2.22715L1.76924 56.913L1.29286 58.5032L1.00852 58.5069L0.45459 56.5284H0.72786L1.15992 58.2037L1.6363 56.5284H1.92434L2.37856 58.2L2.81062 56.5284H3.08758Z" fill="#3093A9"/>
<path d="M5.08182 56.9981C5.17783 57.0498 5.25169 57.1238 5.30339 57.2236C5.35878 57.3235 5.38463 57.4455 5.38463 57.5897V58.5069H5.12982V57.6267C5.12982 57.4714 5.0929 57.3531 5.01535 57.2717C4.9378 57.1904 4.83071 57.1497 4.69776 57.1497C4.56113 57.1497 4.45404 57.1904 4.37279 57.2754C4.29155 57.3605 4.25093 57.4825 4.25093 57.6452V58.5032H3.99243V56.4064H4.25093V57.1719C4.30263 57.0942 4.37279 57.0313 4.46142 56.987C4.55005 56.9426 4.64976 56.9204 4.76423 56.9204C4.8824 56.9241 4.9858 56.95 5.08182 56.9981Z" fill="#3093A9"/>
<path d="M7.83645 57.8265H6.59566C6.60674 57.9781 6.65844 58.1002 6.75445 58.1852C6.85046 58.2703 6.96494 58.3147 7.10157 58.3147C7.21236 58.3147 7.30468 58.2888 7.38223 58.237C7.45609 58.1852 7.50779 58.115 7.54102 58.0299H7.81799C7.77736 58.1778 7.69243 58.2999 7.57057 58.396C7.4487 58.4922 7.28991 58.5366 7.10527 58.5366C6.95755 58.5366 6.82831 58.5033 6.71013 58.4367C6.59196 58.3701 6.50334 58.2777 6.43686 58.1557C6.37039 58.0336 6.33716 57.8931 6.33716 57.7304C6.33716 57.5677 6.37039 57.4271 6.43317 57.3088C6.49595 57.1905 6.58827 57.0943 6.70275 57.0315C6.81723 56.9649 6.95386 56.9353 7.10157 56.9353C7.24929 56.9353 7.37854 56.9686 7.49302 57.0315C7.60749 57.0943 7.69243 57.1831 7.75521 57.2977C7.81799 57.4087 7.84753 57.5381 7.84753 57.6786C7.84383 57.7193 7.84014 57.7711 7.83645 57.8265ZM7.51148 57.3606C7.46717 57.2903 7.40808 57.2348 7.33422 57.1979C7.26037 57.1609 7.17543 57.1424 7.0868 57.1424C6.95755 57.1424 6.84677 57.1831 6.75445 57.2681C6.66213 57.3495 6.61043 57.4678 6.59566 57.6157H7.57426C7.57795 57.5159 7.55579 57.4345 7.51148 57.3606Z" fill="#3093A9"/>
<path d="M9.25839 56.9982C9.34332 56.9501 9.44303 56.9242 9.56489 56.9242V57.1905H9.49842C9.21038 57.1905 9.06636 57.3458 9.06636 57.6601V58.5033H8.80786V56.9501H9.06636V57.2015C9.11067 57.1165 9.17345 57.0462 9.25839 56.9982Z" fill="#3093A9"/>
<path d="M11.8914 57.8265H10.6506C10.6617 57.9781 10.7134 58.1002 10.8094 58.1852C10.9054 58.2703 11.0199 58.3147 11.1565 58.3147C11.2673 58.3147 11.3596 58.2888 11.4372 58.237C11.511 58.1852 11.5627 58.115 11.596 58.0299H11.8729C11.8323 58.1778 11.7474 58.2999 11.6255 58.396C11.5036 58.4922 11.3448 58.5366 11.1602 58.5366C11.0125 58.5366 10.8832 58.5033 10.7651 58.4367C10.6469 58.3701 10.5583 58.2777 10.4918 58.1557C10.4253 58.0336 10.3921 57.8931 10.3921 57.7304C10.3921 57.5677 10.4253 57.4271 10.4881 57.3088C10.5509 57.1905 10.6432 57.0943 10.7577 57.0315C10.8722 56.9649 11.0088 56.9353 11.1565 56.9353C11.3042 56.9353 11.4335 56.9686 11.5479 57.0315C11.6624 57.0943 11.7474 57.1831 11.8101 57.2977C11.8729 57.4087 11.9025 57.5381 11.9025 57.6786C11.9025 57.7193 11.8988 57.7711 11.8914 57.8265ZM11.5701 57.3606C11.5258 57.2903 11.4667 57.2348 11.3928 57.1979C11.319 57.1609 11.2341 57.1424 11.1454 57.1424C11.0162 57.1424 10.9054 57.1831 10.8131 57.2681C10.7208 57.3495 10.6691 57.4678 10.6543 57.6157H11.6329C11.6366 57.5159 11.6144 57.4345 11.5701 57.3606Z" fill="#3093A9"/>
<path d="M15.3586 56.5284V56.7392H14.5019V57.4049H15.1999V57.6157H14.5019V58.5069H14.2434V56.5321H15.3586V56.5284Z" fill="#3093A9"/>
<path d="M16.5737 58.433C16.4555 58.3664 16.3632 58.2739 16.2967 58.1519C16.2303 58.0299 16.197 57.8894 16.197 57.7266C16.197 57.5676 16.2303 57.4271 16.3004 57.3051C16.3706 57.183 16.4629 57.0906 16.5811 57.024C16.6992 56.9574 16.8322 56.9279 16.9799 56.9279C17.1276 56.9279 17.2606 56.9611 17.3787 57.024C17.4969 57.0906 17.5929 57.183 17.6594 57.3014C17.7295 57.4234 17.7628 57.5639 17.7628 57.7229C17.7628 57.882 17.7259 58.0262 17.6557 58.1482C17.5855 58.2703 17.4895 58.3627 17.3676 58.4293C17.2458 58.4958 17.1128 58.5291 16.9651 58.5291C16.8248 58.5328 16.6919 58.4995 16.5737 58.433ZM17.231 58.2407C17.3123 58.1963 17.3787 58.1334 17.4267 58.0447C17.4784 57.9596 17.5006 57.8524 17.5006 57.7266C17.5006 57.6009 17.4747 57.4974 17.4267 57.4086C17.3787 57.3199 17.3123 57.257 17.2347 57.2126C17.1572 57.1682 17.0685 57.1497 16.9762 57.1497C16.8802 57.1497 16.7953 57.1719 16.7177 57.2126C16.6402 57.2533 16.5774 57.3199 16.5294 57.4086C16.4814 57.4974 16.4592 57.6009 16.4592 57.7266C16.4592 57.8524 16.4814 57.9596 16.5294 58.0484C16.5774 58.1371 16.6365 58.2 16.714 58.2444C16.7916 58.2887 16.8765 58.3072 16.9688 58.3072C17.0611 58.3035 17.1498 58.2813 17.231 58.2407Z" fill="#3093A9"/>
<path d="M19.0073 58.433C18.8891 58.3664 18.7968 58.2739 18.7303 58.1519C18.6639 58.0299 18.6306 57.8894 18.6306 57.7266C18.6306 57.5676 18.6639 57.4271 18.734 57.3051C18.8042 57.183 18.8965 57.0906 19.0147 57.024C19.1328 56.9574 19.2658 56.9279 19.4135 56.9279C19.5612 56.9279 19.6942 56.9611 19.8123 57.024C19.9305 57.0906 20.0265 57.183 20.093 57.3014C20.1631 57.4234 20.1964 57.5639 20.1964 57.7229C20.1964 57.882 20.1594 58.0262 20.0893 58.1482C20.0191 58.2703 19.9231 58.3627 19.8012 58.4293C19.6794 58.4958 19.5464 58.5291 19.3987 58.5291C19.2584 58.5328 19.1255 58.4995 19.0073 58.433ZM19.6646 58.2407C19.7459 58.1963 19.8123 58.1334 19.8603 58.0447C19.912 57.9596 19.9342 57.8524 19.9342 57.7266C19.9342 57.6009 19.9083 57.4974 19.8603 57.4086C19.8123 57.3199 19.7459 57.257 19.6683 57.2126C19.5908 57.1682 19.5021 57.1497 19.4098 57.1497C19.3138 57.1497 19.2289 57.1719 19.1513 57.2126C19.0738 57.2533 19.011 57.3199 18.963 57.4086C18.915 57.4974 18.8928 57.6009 18.8928 57.7266C18.8928 57.8524 18.915 57.9596 18.963 58.0484C19.011 58.1371 19.0701 58.2 19.1476 58.2444C19.2252 58.2887 19.3101 58.3072 19.4024 58.3072C19.4947 58.3035 19.5834 58.2813 19.6646 58.2407Z" fill="#3093A9"/>
<path d="M21.1602 57.305C21.223 57.1866 21.3116 57.0905 21.4261 57.0276C21.5406 56.9647 21.6661 56.9278 21.8028 56.9278C21.9246 56.9278 22.0354 56.9573 22.1388 57.0128C22.2422 57.0683 22.3235 57.1422 22.3752 57.231V56.41H22.6374V58.5068H22.3789V58.2147C22.3272 58.3071 22.2533 58.3848 22.1536 58.444C22.0539 58.5031 21.9357 58.5327 21.8028 58.5327C21.6661 58.5327 21.5406 58.4994 21.4261 58.4292C21.3116 58.3589 21.2267 58.2665 21.1602 58.1444C21.0938 58.0224 21.0642 57.8819 21.0642 57.7265C21.0642 57.5638 21.0974 57.427 21.1602 57.305ZM22.3087 57.4196C22.2607 57.3346 22.1979 57.2643 22.1167 57.2199C22.0354 57.1755 21.9468 57.1496 21.8508 57.1496C21.7548 57.1496 21.6661 57.1718 21.5886 57.2162C21.511 57.2606 21.4446 57.3272 21.4003 57.4159C21.3523 57.5047 21.3301 57.6045 21.3301 57.7228C21.3301 57.8412 21.3523 57.9447 21.4003 58.0335C21.4483 58.1222 21.511 58.1888 21.5886 58.2332C21.6661 58.2813 21.7548 58.3034 21.8508 58.3034C21.9468 58.3034 22.0354 58.2813 22.1167 58.2332C22.1979 58.1851 22.2607 58.1185 22.3087 58.0335C22.3567 57.9447 22.3789 57.8449 22.3789 57.7265C22.3789 57.6082 22.3567 57.5084 22.3087 57.4196Z" fill="#3093A9"/>
<path d="M27.2646 56.9981C27.3606 57.0499 27.4344 57.1238 27.4898 57.2237C27.5452 57.3235 27.5711 57.4456 27.5711 57.5898V58.5069H27.3163V57.6268C27.3163 57.4715 27.2793 57.3531 27.2018 57.2718C27.1242 57.1904 27.0208 57.1497 26.8916 57.1497C26.7586 57.1497 26.6515 57.1941 26.5703 57.2792C26.4928 57.3642 26.4521 57.49 26.4521 57.6527V58.5106H26.1973V57.6305C26.1973 57.4752 26.1604 57.3568 26.0828 57.2755C26.0053 57.1941 25.9019 57.1534 25.7727 57.1534C25.6397 57.1534 25.5326 57.1978 25.4514 57.2829C25.3738 57.3679 25.3332 57.4937 25.3332 57.6564V58.5143H25.0747V56.9611H25.3332V57.1867C25.3849 57.1054 25.4514 57.0425 25.54 56.9981C25.6286 56.9537 25.721 56.9315 25.8244 56.9315C25.9536 56.9315 26.0681 56.9611 26.1715 57.0203C26.2712 57.0795 26.345 57.1645 26.3967 57.2792C26.4411 57.1682 26.5112 57.0832 26.6109 57.024C26.7106 56.9648 26.8214 56.9315 26.9433 56.9315C27.0651 56.9241 27.1722 56.95 27.2646 56.9981Z" fill="#3093A9"/>
<path d="M30.023 57.8265H28.7822C28.7933 57.9781 28.845 58.1002 28.941 58.1852C29.037 58.2703 29.1515 58.3147 29.2881 58.3147C29.3989 58.3147 29.4912 58.2888 29.5688 58.237C29.6426 58.1852 29.6943 58.115 29.7275 58.0299H30.0045C29.9639 58.1778 29.879 58.2999 29.7571 58.396C29.6352 58.4922 29.4764 58.5366 29.2918 58.5366C29.1441 58.5366 29.0148 58.5033 28.8967 58.4367C28.7785 58.3701 28.6899 58.2777 28.6234 58.1557C28.5569 58.0336 28.5237 57.8931 28.5237 57.7304C28.5237 57.5677 28.5569 57.4271 28.6197 57.3088C28.6825 57.1905 28.7748 57.0943 28.8893 57.0315C29.0038 56.9649 29.1404 56.9353 29.2881 56.9353C29.4358 56.9353 29.5651 56.9686 29.6795 57.0315C29.794 57.0943 29.879 57.1831 29.9417 57.2977C30.0045 57.4087 30.0341 57.5381 30.0341 57.6786C30.0304 57.7193 30.0304 57.7711 30.023 57.8265ZM29.7017 57.3606C29.6574 57.2903 29.5983 57.2348 29.5244 57.1979C29.4506 57.1609 29.3656 57.1424 29.277 57.1424C29.1478 57.1424 29.037 57.1831 28.9447 57.2681C28.8523 57.3495 28.8006 57.4678 28.7859 57.6157H29.7645C29.7645 57.5159 29.7423 57.4345 29.7017 57.3606Z" fill="#3093A9"/>
<path d="M32.4014 57.8265H31.1606C31.1717 57.9781 31.2234 58.1002 31.3194 58.1852C31.4154 58.2703 31.5299 58.3147 31.6665 58.3147C31.7773 58.3147 31.8696 58.2888 31.9472 58.237C32.021 58.1852 32.0727 58.115 32.106 58.0299H32.3829C32.3423 58.1778 32.2574 58.2999 32.1355 58.396C32.0136 58.4922 31.8549 58.5366 31.6702 58.5366C31.5225 58.5366 31.3932 58.5033 31.2751 58.4367C31.1569 58.3701 31.0683 58.2777 31.0018 58.1557C30.9353 58.0336 30.9021 57.8931 30.9021 57.7304C30.9021 57.5677 30.9353 57.4271 30.9981 57.3088C31.0609 57.1905 31.1532 57.0943 31.2677 57.0315C31.3822 56.9649 31.5188 56.9353 31.6665 56.9353C31.8142 56.9353 31.9435 56.9686 32.058 57.0315C32.1724 57.0943 32.2574 57.1831 32.3201 57.2977C32.3829 57.4087 32.4125 57.5381 32.4125 57.6786C32.4088 57.7193 32.4088 57.7711 32.4014 57.8265ZM32.0801 57.3606C32.0358 57.2903 31.9767 57.2348 31.9029 57.1979C31.829 57.1609 31.7441 57.1424 31.6554 57.1424C31.5262 57.1424 31.4154 57.1831 31.3231 57.2681C31.2308 57.3495 31.1791 57.4678 31.1643 57.6157H32.1429C32.1429 57.5159 32.1207 57.4345 32.0801 57.3606Z" fill="#3093A9"/>
<path d="M33.6864 57.1645V58.0816C33.6864 58.1592 33.7012 58.211 33.7344 58.2406C33.7677 58.2702 33.8231 58.2887 33.9006 58.2887H34.0889V58.5069H33.8563C33.7123 58.5069 33.6052 58.4736 33.535 58.407C33.4649 58.3404 33.4279 58.2332 33.4279 58.0816V57.1645H33.2285V56.95H33.4279V56.558H33.6864V56.95H34.0926V57.1645H33.6864Z" fill="#3093A9"/>
<path d="M35.2561 58.4699C35.16 58.4292 35.0862 58.3738 35.0308 58.2998C34.9754 58.2259 34.9459 58.1445 34.9385 58.0484H35.2044C35.2117 58.126 35.2487 58.1889 35.3115 58.2369C35.3779 58.285 35.4629 58.3109 35.5663 58.3109C35.666 58.3109 35.7435 58.2887 35.7989 58.2443C35.8543 58.2 35.8838 58.1445 35.8838 58.0779C35.8838 58.0114 35.8543 57.9596 35.7915 57.9263C35.7324 57.893 35.6364 57.8598 35.5109 57.8302C35.3964 57.8006 35.3004 57.771 35.2302 57.7377C35.1564 57.7081 35.0936 57.6601 35.0419 57.5972C34.9902 57.5343 34.9643 57.4567 34.9643 57.3531C34.9643 57.2755 34.9865 57.2015 35.0345 57.1349C35.0825 57.0684 35.149 57.0166 35.2339 56.9759C35.3188 56.9389 35.4185 56.9167 35.533 56.9167C35.7029 56.9167 35.8432 56.9611 35.9503 57.0462C36.0574 57.1349 36.1128 57.2533 36.1202 57.4049H35.8617C35.8543 57.3235 35.8248 57.257 35.7657 57.2089C35.7066 57.1608 35.6253 57.1349 35.5256 57.1349C35.4333 57.1349 35.3595 57.1534 35.3041 57.1941C35.2487 57.2348 35.2228 57.2866 35.2228 57.3494C35.2228 57.4012 35.2376 57.4419 35.2708 57.4752C35.3041 57.5084 35.3447 57.5343 35.3964 57.5528C35.4481 57.5713 35.5146 57.5935 35.6032 57.6194C35.714 57.649 35.8063 57.6785 35.8765 57.7081C35.9466 57.7377 36.0057 57.7821 36.0574 57.8413C36.1091 57.9004 36.135 57.9781 36.135 58.0705C36.135 58.1556 36.1128 58.2333 36.0648 58.2998C36.0168 58.3664 35.9503 58.4219 35.8654 58.4588C35.7804 58.4958 35.6807 58.518 35.57 58.518C35.4555 58.5328 35.3484 58.5106 35.2561 58.4699Z" fill="#3093A9"/>
<path d="M38.5387 56.9981C38.6273 56.8427 38.7455 56.7244 38.8932 56.6357C39.0446 56.5469 39.2108 56.5062 39.3917 56.5062C39.6059 56.5062 39.7942 56.558 39.9567 56.6615C40.1155 56.7651 40.2337 56.913 40.3075 57.1053H39.9973C39.9419 56.987 39.8644 56.8945 39.761 56.8317C39.6576 56.7688 39.5357 56.7355 39.3917 56.7355C39.2551 56.7355 39.1295 56.7688 39.0224 56.8317C38.9116 56.8945 38.8267 56.987 38.7639 57.1053C38.7012 57.2236 38.6716 57.3605 38.6716 57.5195C38.6716 57.6748 38.7012 57.8153 38.7639 57.9337C38.8267 58.052 38.9116 58.1445 39.0224 58.2073C39.1332 58.2702 39.2551 58.3035 39.3917 58.3035C39.5357 58.3035 39.6576 58.2702 39.761 58.2073C39.8644 58.1445 39.9419 58.052 39.9973 57.9337H40.3075C40.2337 58.1223 40.1155 58.2702 39.9567 58.37C39.7979 58.4736 39.6096 58.5254 39.3917 58.5254C39.2071 58.5254 39.0409 58.481 38.8932 58.3959C38.7455 58.3109 38.6236 58.1888 38.5387 58.0372C38.4537 57.8856 38.4094 57.7118 38.4094 57.5195C38.4094 57.3272 38.4537 57.1497 38.5387 56.9981Z" fill="#3093A9"/>
<path d="M42.6896 56.9538V58.507H42.4311V58.2777C42.3831 58.3553 42.3129 58.4182 42.2243 58.4626C42.1357 58.507 42.0397 58.5291 41.9326 58.5291C41.8107 58.5291 41.7036 58.5033 41.6076 58.4552C41.5116 58.4034 41.434 58.3294 41.3786 58.2296C41.3232 58.1298 41.2937 58.0077 41.2937 57.8635V56.9538H41.5485V57.8302C41.5485 57.9818 41.5854 58.1002 41.663 58.1815C41.7405 58.2629 41.8476 58.3036 41.9806 58.3036C42.1172 58.3036 42.228 58.2592 42.3055 58.1741C42.3831 58.0891 42.4237 57.967 42.4237 57.8043V56.9501H42.6896V56.9538Z" fill="#3093A9"/>
<path d="M44.0078 56.4064V58.5032H43.7493V56.4064H44.0078Z" fill="#3093A9"/>
<path d="M45.3817 57.1645V58.0816C45.3817 58.1592 45.3965 58.211 45.4297 58.2406C45.463 58.2702 45.5184 58.2887 45.5959 58.2887H45.7843V58.5069H45.5516C45.4076 58.5069 45.3005 58.4736 45.2303 58.407C45.1602 58.3404 45.1232 58.2332 45.1232 58.0816V57.1645H44.9238V56.95H45.1232V56.558H45.3817V56.95H45.788V57.1645H45.3817Z" fill="#3093A9"/>
<path d="M48.0958 56.9538V58.507H47.8373V58.2777C47.7893 58.3553 47.7192 58.4182 47.6305 58.4626C47.5419 58.507 47.4459 58.5291 47.3388 58.5291C47.2169 58.5291 47.1099 58.5033 47.0138 58.4552C46.9178 58.4034 46.8403 58.3294 46.7849 58.2296C46.7295 58.1298 46.7 58.0077 46.7 57.8635V56.9538H46.9548V57.8302C46.9548 57.9818 46.9917 58.1002 47.0692 58.1815C47.1468 58.2629 47.2539 58.3036 47.3868 58.3036C47.5235 58.3036 47.6342 58.2592 47.7118 58.1741C47.7893 58.0891 47.83 57.967 47.83 57.8043V56.9501H48.0958V56.9538Z" fill="#3093A9"/>
<path d="M49.6063 56.9982C49.6912 56.9501 49.7909 56.9242 49.9128 56.9242V57.1905H49.8463C49.5583 57.1905 49.4143 57.3458 49.4143 57.6601V58.5033H49.1558V56.9501H49.4143V57.2015C49.4586 57.1165 49.525 57.0462 49.6063 56.9982Z" fill="#3093A9"/>
<path d="M52.2427 57.8265H51.0019C51.013 57.9781 51.0647 58.1002 51.1607 58.1852C51.2567 58.2703 51.3712 58.3147 51.5078 58.3147C51.6186 58.3147 51.7109 58.2888 51.7885 58.237C51.8623 58.1852 51.914 58.115 51.9473 58.0299H52.2242C52.1836 58.1778 52.0987 58.2999 51.9768 58.396C51.855 58.4922 51.6962 58.5366 51.5115 58.5366C51.3638 58.5366 51.2346 58.5033 51.1164 58.4367C50.9982 58.3701 50.9096 58.2777 50.8431 58.1557C50.7766 58.0336 50.7434 57.8931 50.7434 57.7304C50.7434 57.5677 50.7766 57.4271 50.8394 57.3088C50.9022 57.1905 50.9945 57.0943 51.109 57.0315C51.2235 56.9649 51.3601 56.9353 51.5078 56.9353C51.6555 56.9353 51.7848 56.9686 51.8993 57.0315C52.0137 57.0943 52.0987 57.1831 52.1615 57.2977C52.2242 57.4087 52.2538 57.5381 52.2538 57.6786C52.2501 57.7193 52.2464 57.7711 52.2427 57.8265ZM51.9177 57.3606C51.8734 57.2903 51.8143 57.2348 51.7405 57.1979C51.6666 57.1609 51.5817 57.1424 51.4931 57.1424C51.3638 57.1424 51.253 57.1831 51.1607 57.2681C51.0684 57.3495 51.0167 57.4678 51.0019 57.6157H51.9805C51.9842 57.5159 51.962 57.4345 51.9177 57.3606Z" fill="#3093A9"/>
<path d="M47.35 20.2431C47.35 31.4223 38.2989 40.4863 27.1354 40.4863C26.2972 40.4863 24.6649 40.3383 24.6649 40.3383L21.1863 43.8589C21.1863 43.8589 19.7092 39.1032 18.8413 38.7112C11.8176 35.542 6.92456 28.4676 6.92456 20.2468C6.92456 9.06392 15.9757 0 27.1391 0C38.3026 0 47.35 9.06392 47.35 20.2431Z" fill="#3093A9"/>
<path d="M6.92427 18.0761C6.92427 18.0761 8.46788 15.3543 15.6541 13.1762C15.6541 13.1762 20.0523 11.7857 21.5848 11.6267C21.5848 11.6267 21.2414 6.8562 28.6862 5.78377C28.6862 5.78377 35.2262 4.85925 36.9286 8.58689C36.9286 8.58689 37.7631 10.8057 31.9506 14.0378C31.9506 14.0378 25.7393 17.906 21.9541 13.1244C21.9541 13.1244 16.2782 15.1879 12.2272 18.775C12.2272 18.775 7.39696 22.4583 8.02105 26.8257C8.02105 26.8331 6.52914 23.5862 6.92427 18.0761Z" fill="white"/>
<path d="M45.3004 11.353C45.3004 11.353 46.364 14.7552 45.3004 17.1479C44.2369 19.5405 41.2679 22.7504 36.9657 23.4567C33.4354 24.0336 33.3283 21.7261 30.9205 22.499C28.5128 23.2718 21.5703 25.5942 21.5703 25.5942C21.5703 25.5942 21.009 26.2784 21.8251 26.4152L28.8046 24.4959C28.8046 24.4959 29.6207 24.3554 29.7758 24.7548C29.9309 25.1579 29.1332 25.3612 29.1332 25.3612L22.2424 27.41C22.2424 27.41 21.4964 28.2679 22.6043 28.4935L29.1775 26.6038C29.1775 26.6038 29.8164 26.3079 30.0712 26.6667C30.3297 27.0254 30.1081 27.2436 29.6059 27.3878C29.1037 27.532 22.6781 29.5179 22.6781 29.5179C22.6781 29.5179 22.1759 30.4017 23.2727 30.4017L30.182 28.4676C30.182 28.4676 30.6067 28.3382 30.7064 28.7672C30.8061 29.1961 30.2374 29.2146 30.2374 29.2146L23.6346 31.1783C23.6346 31.1783 23.1619 31.5518 23.2838 31.8624C23.4093 32.1731 23.7121 32.358 24.4359 32.1768C25.156 31.9992 31.072 30.4498 31.072 30.4498C31.072 30.4498 33.6385 30.0171 34.3401 29.2331C35.0417 28.4491 36.445 26.4226 38.1991 25.6127C39.9532 24.8028 45.3041 23.1276 46.7443 21.4968C47.265 20.9088 47.4238 20.1766 47.3537 18.4052C47.2798 16.6375 46.5191 13.827 45.3004 11.353Z" fill="white"/>
</svg>
