<svg width="40" height="40" viewBox="0 0 40 40" fill="none" xmlns="http://www.w3.org/2000/svg">
<path d="M17.5937 25.569C22.0675 25.5535 25.6491 22.0066 25.6374 17.6038C25.627 13.1998 22.0623 9.62059 17.6716 9.60639C13.2328 9.5922 9.56027 13.1998 9.58365 17.5535C9.60832 22.0066 13.1848 25.5858 17.5937 25.569ZM30.9242 28.9172C31.6099 29.6039 31.6631 30.3719 31.0774 30.9604C30.4904 31.549 29.7074 31.5026 29.023 30.8249C27.7646 29.5819 26.5192 28.3273 25.2556 27.0895C24.8751 26.7165 24.6401 26.2983 24.7518 25.7691C24.8608 25.2528 24.405 25.116 24.1557 24.8746C23.9193 24.6448 23.757 25.0011 23.5934 25.1224C20.6792 27.2715 17.4924 27.8085 14.1172 26.4971C10.6368 25.1444 8.57591 22.5332 8.08762 18.8442C7.29675 12.8668 11.9602 7.82646 18.0274 8.00458C23.1025 8.15302 27.1542 12.3479 27.2477 17.5496C27.249 19.7955 26.5634 21.8026 25.1582 23.5684C25.044 23.7129 24.7193 23.8627 24.9362 24.0834C25.1712 24.3247 25.3128 24.7739 25.7673 24.6874C26.3712 24.5713 26.8049 24.8139 27.2088 25.2192C28.4425 26.4583 29.6879 27.682 30.9242 28.9172Z" fill="#2F93A9"/>
<circle cx="20" cy="20" r="19" stroke="#2F93A9" stroke-width="2"/>
</svg>     
