<svg width="14" height="14" viewBox="0 0 14 14" fill="none" xmlns="http://www.w3.org/2000/svg">
<path d="M5.72006 10.5249C8.3875 10.5156 10.523 8.39076 10.516 5.75327C10.5098 3.115 8.38441 0.970831 5.76652 0.962325C3.11999 0.95382 0.930288 3.115 0.944225 5.72311C0.958937 8.39076 3.09134 10.5349 5.72006 10.5249ZM13.6682 12.5306C14.077 12.942 14.1088 13.4021 13.7595 13.7547C13.4096 14.1073 12.9427 14.0794 12.5346 13.6735C11.7843 12.9289 11.0418 12.1773 10.2884 11.4358C10.0615 11.2123 9.92138 10.9618 9.98797 10.6447C10.053 10.3354 9.78123 10.2535 9.63257 10.1089C9.49164 9.97125 9.39486 10.1847 9.2973 10.2573C7.55978 11.5448 5.65967 11.8664 3.64728 11.0808C1.57218 10.2705 0.343374 8.70624 0.0522401 6.49635C-0.419304 2.91551 2.36118 -0.103961 5.97868 0.00274454C9.00461 0.0916662 11.4204 2.60467 11.4762 5.72079C11.4769 7.06622 11.0681 8.26859 10.2303 9.32637C10.1622 9.41298 9.96861 9.50267 10.0979 9.63489C10.2381 9.77949 10.3225 10.0486 10.5935 9.99677C10.9535 9.92718 11.2121 10.0725 11.4529 10.3153C12.1885 11.0576 12.9311 11.7907 13.6682 12.5306Z" fill="#BB9B8E"/>
</svg>
