<svg width="23" height="23" viewBox="0 0 23 23" fill="none" xmlns="http://www.w3.org/2000/svg">
<path d="M11.5 0C9.22552 0 7.00211 0.674463 5.11095 1.9381C3.21978 3.20174 1.7458 4.99779 0.87539 7.09914C0.00498277 9.20049 -0.222756 11.5128 0.220974 13.7435C0.664704 15.9743 1.75997 18.0234 3.36828 19.6317C4.97658 21.24 7.02568 22.3353 9.25646 22.779C11.4872 23.2228 13.7995 22.995 15.9009 22.1246C18.0022 21.2542 19.7983 19.7802 21.0619 17.8891C22.3255 15.9979 23 13.7745 23 11.5C22.9966 8.45105 21.7839 5.52794 19.628 3.37201C17.4721 1.21607 14.549 0.00338209 11.5 0ZM11.5 20.4444C9.73096 20.4444 8.00164 19.9199 6.53074 18.937C5.05983 17.9542 3.9134 16.5573 3.23642 14.9229C2.55943 13.2885 2.3823 11.4901 2.72743 9.75502C3.07255 8.01997 3.92442 6.42622 5.17533 5.17532C6.42623 3.92442 8.01998 3.07254 9.75503 2.72742C11.4901 2.3823 13.2885 2.55943 14.9229 3.23641C16.5573 3.91339 17.9542 5.05982 18.937 6.53073C19.9199 8.00164 20.4444 9.73095 20.4444 11.5C20.4419 13.8714 19.4987 16.145 17.8219 17.8219C16.145 19.4987 13.8714 20.4419 11.5 20.4444ZM18.7407 11.5C18.7407 11.8389 18.6061 12.1639 18.3665 12.4035C18.1269 12.6432 17.8019 12.7778 17.463 12.7778H11.5C11.1611 12.7778 10.8361 12.6432 10.5965 12.4035C10.3568 12.1639 10.2222 11.8389 10.2222 11.5V5.53704C10.2222 5.19815 10.3568 4.87314 10.5965 4.63351C10.8361 4.39388 11.1611 4.25926 11.5 4.25926C11.8389 4.25926 12.1639 4.39388 12.4035 4.63351C12.6432 4.87314 12.7778 5.19815 12.7778 5.53704V10.2222H17.463C17.8019 10.2222 18.1269 10.3568 18.3665 10.5965C18.6061 10.8361 18.7407 11.1611 18.7407 11.5Z" fill="black"/>
</svg>
